<svg xmlns="http://www.w3.org/2000/svg" version="1.1" xmlns:xlink="http://www.w3.org/1999/xlink" width="512" height="512" x="0" y="0" viewBox="0 0 682.667 682.667" style="enable-background:new 0 0 512 512" xml:space="preserve" class=""><g><defs><clipPath id="a" clipPathUnits="userSpaceOnUse"><path d="M0 512h512V0H0Z" fill="#ffffff" opacity="1" data-original="#000000" class=""></path></clipPath></defs><g clip-path="url(#a)" transform="matrix(1.33333 0 0 -1.33333 0 682.667)"><path d="M0 0c-4.482-4.483-11.78-4.484-16.263 0-4.484 4.484-4.484 11.78 0 16.264 4.484 4.483 11.78 4.483 16.263 0C4.484 11.78 4.484 4.484 0 0m10.607 26.87c-10.334 10.332-27.143 10.333-37.477 0a26.339 26.339 0 0 1-6.673-11.24h-62.884v113.183l63.817-63.825c4.342-4.345 10.122-6.738 16.273-6.738 9.104 0 17.115 5.142 20.908 13.417 3.793 8.276 2.457 17.702-3.484 24.597l-29.697 34.494a7.5 7.5 0 0 1-11.368-9.786l29.7-34.498c3.111-3.61 1.715-7.462 1.214-8.557-.502-1.095-2.509-4.667-7.273-4.667a7.962 7.962 0 0 0-5.666 2.343l-71.501 71.511a10.464 10.464 0 0 1-11.439 2.275 10.475 10.475 0 0 1-6.484-9.709V15.63h-14.02a7.5 7.5 0 0 1-7.5-7.5 7.5 7.5 0 0 1 7.5-7.5h14.02v-137.4c0-7.87 5.314-14.796 12.935-16.846l14.898-3.979c1.213-.363 1.797-1.121 1.797-2.355 0-1.345-1.09-2.44-2.43-2.44h-39.98c-1.26 0-2.302.948-2.426 2.202l-16.781 171.384c-.931 9.723-9.408 17.345-19.143 17.345a19.17 19.17 0 0 1-19.144-17.36l-16.779-171.367a2.433 2.433 0 0 0-2.427-2.204h-39.97c-1.538.059-2.44.901-2.44 2.44 0 1.1.748 2.07 1.805 2.354l14.917 3.985c7.606 2.05 12.918 8.976 12.918 16.841v82.213a7.5 7.5 0 0 1-15 0v-82.213a2.45 2.45 0 0 0-1.805-2.354l-14.914-3.983c-7.608-2.046-12.921-8.973-12.921-16.843 0-9.466 7.938-17.492 17.44-17.44h39.97a17.38 17.38 0 0 1 17.354 15.74l16.78 171.368a4.222 4.222 0 0 0 4.216 3.823c2.139 0 4.013-1.684 4.216-3.822l16.78-171.372a17.38 17.38 0 0 1 17.354-15.737h39.98c9.611 0 17.43 7.824 17.43 17.44 0 7.763-5.413 14.866-12.925 16.846l-14.887 3.977a2.45 2.45 0 0 0-1.818 2.357V.63h62.885a26.33 26.33 0 0 1 6.672-11.236c10.333-10.334 27.144-10.334 37.477 0 10.332 10.332 10.332 27.144 0 37.476M-324.589-3.457c-1.641-6.125-7.966-9.771-14.085-8.131-6.125 1.641-9.772 7.959-8.132 14.084 1.621 6.051 8.051 9.748 14.084 8.131 6.126-1.641 9.774-7.959 8.133-14.084m127.534 256.44v32.127c0 .175.011.347.013.52h12.915a7.5 7.5 0 0 1 7.5 7.5 7.5 7.5 0 0 1-7.5 7.5h-9.226c5.692 11.247 17.356 18.98 30.798 18.98 19.024 0 34.5-15.476 34.5-34.5v-32.127c0-10.13-8.242-18.373-18.373-18.373h-32.255c-10.13 0-18.372 8.243-18.372 18.373m-92.901 40.138a11.466 11.466 0 0 0-3.363-8.121c-4.483-4.484-11.781-4.482-16.263 0-4.484 4.484-4.484 11.78 0 16.264 4.483 4.483 11.779 4.483 16.263 0a11.467 11.467 0 0 0 3.363-8.123l-.001-.011.001-.009m232.977-44.65c1.662 6.201 8.084 9.738 14.084 8.131 6.126-1.641 9.774-7.959 8.133-14.084-1.615-6.032-8.066-9.744-14.085-8.132-6.125 1.641-9.772 7.959-8.132 14.085M-228.677 52.65v-72.207a7.5 7.5 0 0 1 15 0v80.868l22.3 12.874a7.5 7.5 0 0 1-7.5 12.99l-14.8-8.544v61.039c0 4.266-2.547 8.077-6.487 9.709a10.471 10.471 0 0 1-11.446-2.276l-71.518-71.527c-1.458-1.471-3.557-2.326-5.639-2.326-4.763 0-6.772 3.573-7.274 4.667-.502 1.096-1.899 4.949 1.208 8.56l80.907 93.978a32.502 32.502 0 0 0 24.639 11.295h20.23c7.995 0 14.5 6.505 14.5 14.5v13.36h24v-13.36c0-3.946 1.589-7.525 4.157-10.143l-4.818-2.782a7.5 7.5 0 0 1-2.744-10.245c2.093-3.625 6.713-4.789 10.246-2.744l19.765 11.414h8.134a32.492 32.492 0 0 0 24.627-11.292l28.359-32.942a7.482 7.482 0 0 1 5.686-2.607 7.5 7.5 0 0 1 5.681 12.393l-28.361 32.945a47.496 47.496 0 0 1-21.888 14.346l37.569 21.698a26.355 26.355 0 0 1 11.415-6.394c13.749-3.684 28.725 4.817 32.456 18.739 3.782 14.114-4.624 28.673-18.739 32.455-14.117 3.783-28.675-4.624-32.455-18.738a26.35 26.35 0 0 1-.173-13.07l-56.332-32.533h-7.585v14.688c13.079 4.52 22.502 16.949 22.502 31.545v32.127c0 27.295-22.206 49.5-49.501 49.5-21.873 0-40.465-14.267-46.993-33.98h-66.49a26.339 26.339 0 0 1-6.673 11.24c-10.334 10.333-27.143 10.331-37.477 0-10.332-10.332-10.332-27.144 0-37.476 10.333-10.334 27.143-10.334 37.477 0a26.33 26.33 0 0 1 6.672 11.236h63.998c-.002-.173-.013-.345-.013-.52v-32.127c0-14.594 9.421-27.023 22.498-31.544V206.75h-19.73a47.488 47.488 0 0 1-36.004-16.506l-80.91-93.981c-5.938-6.899-7.27-16.325-3.474-24.599 3.795-8.274 11.807-13.414 20.908-13.414 6.016 0 12.038 2.475 16.264 6.738l63.826 63.835V69.971l-88.765-51.249a26.347 26.347 0 0 1-11.397 6.395c-13.975 3.745-28.721-4.801-32.455-18.739-3.721-13.885 4.75-28.708 18.737-32.456 13.763-3.688 28.632 4.469 32.456 18.739a26.339 26.339 0 0 1 .16 13.072z" style="fill-opacity:1;fill-rule:nonzero;stroke:none" transform="translate(427.917 177.39)" fill="#ffffff" data-original="#000000" opacity="1" class=""></path></g></g></svg>