<svg xmlns="http://www.w3.org/2000/svg" version="1.1" xmlns:xlink="http://www.w3.org/1999/xlink" width="512" height="512" x="0" y="0" viewBox="0 0 32 32" style="enable-background:new 0 0 512 512" xml:space="preserve" class=""><g transform="matrix(1.5000000000000007,0,0,1.5000000000000007,-8.00000000000001,-8.000249862670902)"><path d="M17.01 12.692a.5.5 0 0 0 0 1c.868 0 1.575.707 1.575 1.575s-.707 1.574-1.575 1.574h-2.334l.613-.613a.5.5 0 0 0-.707-.707l-1.466 1.466h-.001l-.353.354.353.353h.001l1.466 1.467a.498.498 0 0 0 .708 0 .5.5 0 0 0 0-.707l-.613-.613h2.334c1.42 0 2.575-1.155 2.575-2.574s-1.155-2.575-2.575-2.575z" fill="#000000" opacity="1" data-original="#000000" class=""></path><path d="M16 8.91c-3.91 0-7.091 3.181-7.091 7.09S12.09 23.091 16 23.091 23.091 19.91 23.091 16 19.91 8.91 16 8.91zm0 13.181c-3.358 0-6.091-2.732-6.091-6.091S12.641 9.91 16 9.91s6.091 2.732 6.091 6.09-2.732 6.091-6.091 6.091z" fill="#000000" opacity="1" data-original="#000000" class=""></path></g></svg>