<svg xmlns="http://www.w3.org/2000/svg" xmlns:xlink="http://www.w3.org/1999/xlink" width="500" zoomAndPan="magnify" viewBox="0 0 375 374.999991" height="500" preserveAspectRatio="xMidYMid meet" version="1.0"><defs><g/><clipPath id="6d29ef0d82"><path d="M 54.824219 106.308594 L 111.074219 106.308594 L 111.074219 260.128906 L 54.824219 260.128906 Z M 54.824219 106.308594 " clip-rule="nonzero"/></clipPath></defs><rect x="-37.5" width="450" fill="#ffffff" y="-37.499999" height="449.999989" fill-opacity="1"/><rect x="-37.5" width="450" fill="#2b2b2b" y="-37.499999" height="449.999989" fill-opacity="1"/><g fill="#e6e6dd" fill-opacity="1"><g transform="translate(112.245464, 257.841865)"><g><path d="M 6.609375 -149.28125 L 47.09375 -149.28125 C 57.988281 -149.28125 65.894531 -146.613281 70.8125 -141.28125 C 75.738281 -135.957031 78.203125 -127.269531 78.203125 -115.21875 L 78.203125 -108.609375 C 78.203125 -94.359375 73.101562 -85.84375 62.90625 -83.0625 C 69.164062 -81.445312 73.566406 -77.679688 76.109375 -71.765625 C 78.660156 -65.859375 79.9375 -58.039062 79.9375 -48.3125 C 79.9375 -32.4375 77.5625 -20.414062 72.8125 -12.25 C 68.0625 -4.082031 59.488281 0 47.09375 0 L 6.609375 0 Z M 41.875 -93.140625 C 44.425781 -93.140625 46.164062 -94.09375 47.09375 -96 C 48.019531 -97.914062 48.484375 -100.613281 48.484375 -104.09375 L 48.484375 -119.046875 C 48.484375 -123.910156 46.34375 -126.34375 42.0625 -126.34375 L 35.796875 -126.34375 L 35.796875 -93.140625 Z M 38.75 -26.234375 C 46.507812 -26.234375 50.390625 -29.941406 50.390625 -37.359375 L 50.390625 -55.953125 C 50.390625 -60.472656 49.722656 -63.890625 48.390625 -66.203125 C 47.066406 -68.523438 44.722656 -69.6875 41.359375 -69.6875 L 35.796875 -69.6875 L 35.796875 -26.421875 Z M 38.75 -26.234375 "/></g></g></g><g fill="#e6e6dd" fill-opacity="1"><g transform="translate(195.488974, 257.841865)"><g><path d="M 41.359375 1.390625 C 30.472656 1.390625 21.753906 -2.023438 15.203125 -8.859375 C 8.660156 -15.691406 5.390625 -25.078125 5.390625 -37.015625 L 5.390625 -105.828125 C 5.390625 -120.660156 8.34375 -131.84375 14.25 -139.375 C 20.15625 -146.90625 29.425781 -150.671875 42.0625 -150.671875 C 53.0625 -150.671875 61.921875 -147.65625 68.640625 -141.625 C 75.359375 -135.601562 78.71875 -126.914062 78.71875 -115.5625 L 78.71875 -89.84375 L 49 -89.84375 L 49 -111.921875 C 49 -116.203125 48.476562 -119.148438 47.4375 -120.765625 C 46.394531 -122.390625 44.601562 -123.203125 42.0625 -123.203125 C 39.394531 -123.203125 37.566406 -122.273438 36.578125 -120.421875 C 35.597656 -118.578125 35.109375 -115.859375 35.109375 -112.265625 L 35.109375 -37.359375 C 35.109375 -33.421875 35.6875 -30.550781 36.84375 -28.75 C 38 -26.957031 39.738281 -26.0625 42.0625 -26.0625 C 46.6875 -26.0625 49 -29.828125 49 -37.359375 L 49 -64.296875 L 79.078125 -64.296875 L 79.078125 -36.140625 C 79.078125 -11.117188 66.503906 1.390625 41.359375 1.390625 Z M 41.359375 1.390625 "/></g></g></g><g fill="#e6e6dd" fill-opacity="1"><g transform="translate(277.863526, 257.841865)"><g><path d="M 5.21875 0 L 5.21875 -149.28125 L 34.0625 -149.28125 L 34.0625 0 Z M 5.21875 0 "/></g></g></g><g clip-path="url(#6d29ef0d82)"><path fill="#e6e6dd" d="M 54.824219 106.308594 L 111.074219 106.308594 L 111.074219 260.117188 L 54.824219 260.117188 Z M 54.824219 106.308594 " fill-opacity="1" fill-rule="nonzero"/></g><g fill="#2b2b2b" fill-opacity="1"><g transform="translate(99.82105, 252.712103)"><g><path d="M 0.34375 -9.4375 C 0.34375 -6.71875 -0.613281 -4.691406 -2.53125 -3.359375 C -4.445312 -2.023438 -7.347656 -1.359375 -11.234375 -1.359375 L -27.484375 -1.359375 C -30.960938 -1.359375 -33.59375 -2.132812 -35.375 -3.6875 C -37.164062 -5.238281 -38.0625 -7.550781 -38.0625 -10.625 C -38.0625 -13.113281 -37.5625 -15.046875 -36.5625 -16.421875 C -35.570312 -17.796875 -34.125 -18.742188 -32.21875 -19.265625 C -30.320312 -19.796875 -27.878906 -20.0625 -24.890625 -20.0625 L -24.890625 -12.6875 L -28.28125 -12.6875 C -29.1875 -12.6875 -29.882812 -12.5625 -30.375 -12.3125 C -30.875 -12.0625 -31.125 -11.613281 -31.125 -10.96875 C -31.125 -9.539062 -30.1875 -8.828125 -28.3125 -8.828125 L -10.046875 -8.828125 C -8.910156 -8.828125 -8.046875 -8.972656 -7.453125 -9.265625 C -6.867188 -9.554688 -6.578125 -10.066406 -6.578125 -10.796875 C -6.578125 -11.535156 -6.867188 -12.050781 -7.453125 -12.34375 C -8.046875 -12.632812 -8.910156 -12.78125 -10.046875 -12.78125 L -15.453125 -12.78125 L -15.453125 -10.75 L -21.953125 -10.75 L -21.953125 -19.984375 L 0 -19.984375 L 0 -16.953125 L -3.15625 -15.671875 C -0.820312 -14.328125 0.34375 -12.25 0.34375 -9.4375 Z M 0.34375 -9.4375 "/></g></g></g><g fill="#2b2b2b" fill-opacity="1"><g transform="translate(99.82105, 231.421344)"><g><path d="M 0 -1.671875 L -37.71875 -1.671875 L -37.71875 -16.765625 L -30.421875 -16.765625 L -30.421875 -9.359375 L -23.09375 -9.359375 L -23.09375 -16.46875 L -15.984375 -16.46875 L -15.984375 -9.359375 L -7.328125 -9.359375 L -7.328125 -17.25 L 0 -17.25 Z M 0 -1.671875 "/></g></g></g><g fill="#2b2b2b" fill-opacity="1"><g transform="translate(99.82105, 213.335183)"><g><path d="M 0 -1.671875 L -37.71875 -1.671875 L -37.71875 -9.4375 L -19.671875 -12.90625 L -37.71875 -12.90625 L -37.71875 -20.203125 L 0 -20.203125 L 0 -12.828125 L -18.875 -9.046875 L 0 -9.046875 Z M 0 -1.671875 "/></g></g></g><g fill="#2b2b2b" fill-opacity="1"><g transform="translate(99.82105, 191.473754)"><g><path d="M 0 -1.671875 L -37.71875 -1.671875 L -37.71875 -16.765625 L -30.421875 -16.765625 L -30.421875 -9.359375 L -23.09375 -9.359375 L -23.09375 -16.46875 L -15.984375 -16.46875 L -15.984375 -9.359375 L -7.328125 -9.359375 L -7.328125 -17.25 L 0 -17.25 Z M 0 -1.671875 "/></g></g></g><g fill="#2b2b2b" fill-opacity="1"><g transform="translate(99.82105, 173.387592)"><g><path d="M -37.71875 -1.671875 L -37.71875 -13.265625 C -37.71875 -15.109375 -37.300781 -16.535156 -36.46875 -17.546875 C -35.632812 -18.554688 -34.460938 -19.234375 -32.953125 -19.578125 C -31.441406 -19.929688 -29.515625 -20.109375 -27.171875 -20.109375 C -25.035156 -20.109375 -23.367188 -19.828125 -22.171875 -19.265625 C -20.972656 -18.710938 -20.140625 -17.75 -19.671875 -16.375 C -19.429688 -17.519531 -18.859375 -18.347656 -17.953125 -18.859375 C -17.046875 -19.367188 -15.816406 -19.625 -14.265625 -19.625 L 0 -19.53125 L 0 -12.15625 L -14.75 -12.15625 C -15.800781 -12.15625 -16.472656 -11.953125 -16.765625 -11.546875 C -17.066406 -11.140625 -17.21875 -10.394531 -17.21875 -9.3125 L 0 -9.3125 L 0 -1.671875 Z M -23.75 -11.15625 C -23.75 -12.207031 -24.890625 -12.734375 -27.171875 -12.734375 C -28.171875 -12.734375 -28.914062 -12.6875 -29.40625 -12.59375 C -29.90625 -12.507812 -30.25 -12.347656 -30.4375 -12.109375 C -30.632812 -11.878906 -30.734375 -11.546875 -30.734375 -11.109375 L -30.734375 -9.359375 L -23.75 -9.359375 Z M -23.75 -11.15625 "/></g></g></g><g fill="#2b2b2b" fill-opacity="1"><g transform="translate(99.82105, 152.44803)"><g><path d="M 0 -0.65625 L -37.71875 -4.296875 L -37.71875 -17.078125 L 0 -20.6875 L 0 -13.515625 L -6.109375 -13 L -6.109375 -8.4375 L 0 -7.984375 Z M -12.125 -9 L -12.125 -12.421875 L -31.3125 -10.75 L -31.3125 -10.40625 Z M -12.125 -9 "/></g></g></g><g fill="#2b2b2b" fill-opacity="1"><g transform="translate(99.82105, 131.157272)"><g><path d="M 0 -1.671875 L -37.71875 -1.671875 L -37.71875 -9.21875 L -6.40625 -9.21875 L -6.40625 -16.984375 L 0 -16.984375 Z M 0 -1.671875 "/></g></g></g></svg>