<svg xmlns="http://www.w3.org/2000/svg" version="1.1" xmlns:xlink="http://www.w3.org/1999/xlink" width="512" height="512" x="0" y="0" viewBox="0 0 74 74" style="enable-background:new 0 0 512 512" xml:space="preserve" class=""><g><path d="M46.34 15.75c-1.71 0-3.1 1.39-3.1 3.1 0 1.45 1 2.66 2.35 3v2.58l-2.31 2.31c-.29.29-.29.77 0 1.06.15.15.34.22.53.22s.38-.07.53-.22l2.53-2.53a.75.75 0 0 0 .22-.53v-2.89c1.34-.34 2.35-1.55 2.35-3 0-1.71-1.39-3.1-3.1-3.1zm0 4.69c-.88 0-1.6-.72-1.6-1.6s.72-1.6 1.6-1.6 1.6.72 1.6 1.6-.72 1.6-1.6 1.6zM26.74 21.84v2.89c0 .2.08.39.22.53l2.53 2.53c.15.15.34.22.53.22s.38-.07.53-.22c.29-.29.29-.77 0-1.06l-2.31-2.31v-2.58c1.34-.34 2.35-1.55 2.35-3 0-1.71-1.39-3.1-3.1-3.1s-3.1 1.39-3.1 3.1c0 1.45 1 2.66 2.35 3zm.75-4.59c.88 0 1.6.72 1.6 1.6s-.72 1.6-1.6 1.6-1.6-.72-1.6-1.6.72-1.6 1.6-1.6zM47.09 52.43v-2.9c0-.2-.08-.39-.22-.53l-2.53-2.53c-.29-.29-.77-.29-1.06 0s-.29.77 0 1.06l2.31 2.31v2.58c-1.34.34-2.35 1.55-2.35 2.99 0 1.71 1.39 3.1 3.1 3.1 1.71 0 3.1-1.39 3.1-3.1 0-1.43-1-2.64-2.35-2.98zm-.75 4.59c-.88 0-1.6-.72-1.6-1.6s.72-1.6 1.6-1.6 1.6.72 1.6 1.6-.72 1.6-1.6 1.6zM30.55 47.53c.29-.29.29-.77 0-1.06s-.77-.29-1.06 0L26.96 49a.75.75 0 0 0-.22.53v2.9c-1.34.34-2.35 1.55-2.35 2.99 0 1.71 1.39 3.1 3.1 3.1s3.1-1.39 3.1-3.1c0-1.45-1-2.66-2.35-2.99v-2.58l2.31-2.32zm-1.46 7.9c0 .88-.72 1.6-1.6 1.6s-1.6-.72-1.6-1.6.72-1.6 1.6-1.6 1.6.72 1.6 1.6zM38.13 32.82a.742.742 0 0 0-.49-.18H33.3c-.41 0-.75.34-.75.75v7.23c0 .41.34.75.75.75h7.23c.41 0 .75-.34.75-.75v-4.73c0-.22-.09-.42-.26-.57l-2.89-2.5zm1.65 7.05h-5.73v-5.73h3.31l2.42 2.1v3.63z" fill="#ffffff" opacity="1" data-original="#000000" class=""></path><path d="M68.62 31.69c0-3.94-2.87-7.31-6.67-8.03.09-.5.16-1.01.16-1.51 0-4.51-3.67-8.17-8.17-8.17-.52 0-1.04.06-1.55.16a8.156 8.156 0 0 0-7.71-5.48c-1.05 0-2.07.2-3.03.58-1.8.72-3 2.54-3 4.53V29h-3.31V13.76c0-1.99-1.2-3.81-3-4.53-.96-.38-1.98-.58-3.03-.58-3.5 0-6.58 2.22-7.71 5.48-.51-.1-1.03-.16-1.55-.16-4.5 0-8.17 3.66-8.17 8.17 0 .5.07 1.01.16 1.51-3.8.72-6.67 4.09-6.67 8.03 0 1.98.7 3.84 1.97 5.32a8.11 8.11 0 0 0-1.97 5.31c0 3.01 1.66 5.73 4.26 7.15-.26.82-.4 1.66-.4 2.54 0 4.5 3.66 8.17 8.17 8.17 1.4 0 2.78-.38 3.99-1.06a8.107 8.107 0 0 0 8.69 6.19c2.95-.27 5.26-2.9 5.26-5.99V45h3.31v14.32c0 3.09 2.31 5.72 5.26 5.99a8.107 8.107 0 0 0 8.69-6.19 8.18 8.18 0 0 0 3.99 1.06c4.51 0 8.17-3.67 8.17-8.17 0-.88-.14-1.72-.4-2.54a8.148 8.148 0 0 0 4.26-7.15c0-1.97-.7-3.83-1.97-5.31a8.137 8.137 0 0 0 1.97-5.32zM33.85 59.31c0 2.32-1.71 4.3-3.9 4.5a6.63 6.63 0 0 1-7.26-6.01c0-.02-1.17-.52-1.21-.52-1.15.89-2.6 1.39-4.07 1.39-3.68 0-6.67-3-6.67-6.67 0-.66.09-1.3.28-1.92.81.27 1.66.4 2.54.4.42 0 .75-.33.75-.75 0-.41-.33-.75-.75-.75-.94 0-1.85-.18-2.69-.56a6.673 6.673 0 0 1-3.99-6.11c0-1.81.72-3.5 2.02-4.78 1.24-1.22 2.9-1.9 4.66-1.9.42 0 .75-.33.75-.75 0-.41-.33-.75-.75-.75-1.9 0-3.7.64-5.13 1.82a6.557 6.557 0 0 1-1.55-4.27c0-3.46 2.7-6.37 6.14-6.65.02 0 1-.02.66-.97-.22-.62-.29-1.28-.29-1.92 0-3.68 2.99-6.67 6.67-6.67.4 0 .8.04 1.2.12-.07.41-.11.82-.11 1.24 0 .41.34.75.75.75s.75-.34.75-.75c0-.55.07-1.1.21-1.64.74-2.97 3.4-5.04 6.46-5.04.86 0 1.69.16 2.48.48 1.23.49 2.05 1.75 2.05 3.13V29h-2.11c-1.52 0-2.76 1.22-2.81 2.73h-5.47l-2.3-2.3c.29-.47.47-1.02.47-1.62 0-1.71-1.39-3.09-3.1-3.09a3.094 3.094 0 1 0 0 6.19c.57 0 1.09-.17 1.55-.43l2.54 2.53c.14.14.33.22.53.22h5.78v1.31H18.84l-3.02-3.01c-.29-.3-.77-.3-1.06 0-.29.29-.29.76 0 1.06L18 35.82c.14.14.33.22.53.22h10.4v1.72h-10.4c-.2 0-.39.08-.53.22l-3.82 3.82c-.29.29-.29.76 0 1.06.15.14.34.22.53.22s.38-.08.53-.22l3.6-3.6h10.09v1.5h-5.78c-.2 0-.39.08-.53.22l-2.54 2.53c-.46-.26-.98-.43-1.55-.43-1.71 0-3.1 1.39-3.1 3.1 0 1.71 1.39 3.1 3.1 3.1s3.1-1.39 3.1-3.1c0-.6-.18-1.15-.47-1.62l2.3-2.3h5.47a2.823 2.823 0 0 0 2.81 2.73h2.11v14.32zm-13.72-31.5c0 .46-.2.86-.5 1.15-.29.28-.67.45-1.1.45-.88 0-1.6-.72-1.6-1.6s.72-1.59 1.6-1.59 1.6.71 1.6 1.59zm0 18.37c0 .88-.72 1.6-1.6 1.6s-1.6-.72-1.6-1.6c0-.88.72-1.6 1.6-1.6.43 0 .81.17 1.1.44v.01c.31.29.5.71.5 1.15zm11.61-2.68c-.72 0-1.31-.59-1.31-1.32V31.82c0-.73.59-1.32 1.31-1.32H42.1c.72 0 1.31.59 1.31 1.32v10.35c0 .73-.59 1.32-1.31 1.32H31.74zm35.38-1.18c0 2.65-1.57 5.05-3.99 6.11-.84.38-1.75.56-2.69.56-.42 0-.75.34-.75.75 0 .42.33.75.75.75.88 0 1.73-.13 2.54-.4.19.62.28 1.26.28 1.92 0 3.67-2.99 6.67-6.67 6.67-1.47 0-2.92-.5-4.07-1.39-.04 0-1.21.5-1.21.52a6.63 6.63 0 0 1-7.26 6.01c-2.19-.2-3.9-2.18-3.9-4.5V45h1.94c1.52 0 2.76-1.22 2.81-2.73h4.7l2.3 2.3c-.29.47-.47 1.02-.47 1.62 0 1.71 1.39 3.1 3.1 3.1a3.1 3.1 0 0 0 0-6.2c-.57 0-1.1.17-1.56.43l-2.53-2.53a.75.75 0 0 0-.53-.22H44.9v-1.5h9.31l3.6 3.6c.15.14.34.22.53.22.2 0 .39-.08.53-.22.3-.3.3-.77 0-1.06l-3.81-3.82a.786.786 0 0 0-.53-.22H44.9v-1.72h9.63c.19 0 .38-.08.53-.22l3.23-3.23c.3-.3.3-.77 0-1.06-.29-.3-.76-.3-1.06 0l-3.02 3.01H44.9v-1.31h5.01c.2 0 .39-.08.53-.22l2.53-2.53c.46.26.99.43 1.56.43a3.1 3.1 0 0 0 3.09-3.1c0-1.71-1.39-3.09-3.09-3.09-1.71 0-3.1 1.38-3.1 3.09 0 .6.18 1.15.47 1.62l-2.3 2.3h-4.7c-.04-1.51-1.28-2.74-2.8-2.74h-1.94V13.76c0-1.38.82-2.64 2.05-3.13.79-.32 1.62-.48 2.48-.48 3.06 0 5.72 2.07 6.46 5.04.14.54.21 1.09.21 1.64 0 .41.34.75.75.75s.75-.34.75-.75c0-.42-.04-.83-.11-1.24.4-.08.8-.12 1.2-.12 3.68 0 6.67 2.99 6.67 6.67 0 .64-.07 1.3-.29 1.92-.34.95.64.97.66.97 3.44.28 6.14 3.19 6.14 6.65 0 1.58-.54 3.08-1.55 4.27-1.43-1.18-3.23-1.82-5.13-1.82-.42 0-.75.34-.75.75 0 .42.33.75.75.75 1.76 0 3.42.68 4.66 1.9 1.29 1.29 2.01 2.98 2.01 4.79zm-14.18 3.86c0-.45.19-.86.49-1.15h.01v-.01c.29-.27.67-.44 1.1-.44.88 0 1.59.72 1.59 1.6 0 .88-.71 1.6-1.59 1.6-.89.01-1.6-.72-1.6-1.6zm.49-17.22a1.59 1.59 0 0 1 1.11-2.74 1.596 1.596 0 0 1 0 3.19c-.43 0-.82-.17-1.1-.44v-.01h-.01z" fill="#ffffff" opacity="1" data-original="#000000" class=""></path></g></svg>