<svg xmlns="http://www.w3.org/2000/svg" version="1.1" xmlns:xlink="http://www.w3.org/1999/xlink" width="512" height="512" x="0" y="0" viewBox="0 0 68 68" style="enable-background:new 0 0 512 512" xml:space="preserve" class=""><g><path d="M31.73 23.4c-.54.12-.88.65-.76 1.19s.65.88 1.19.76c.55-.12 1.1.04 1.5.44l2.33 2.33-11.9 2.62.83-3.8 3.3-.73c.54-.12.88-.65.76-1.19s-.66-.88-1.19-.76l-2.4.53 1.7-7.74c.07-.33-.03-.68-.27-.92l-4.64-4.64a1.006 1.006 0 0 0-1.69.5l-1.58 7.18c-.12.54.22 1.07.76 1.19s1.07-.22 1.19-.76l1.19-5.4 2.96 2.96-1.93 8.76-.91 4.13-2.33-2.33c-.39-.39-.56-.95-.44-1.5l.56-2.54c.12-.54-.22-1.07-.76-1.19s-1.07.22-1.19.76l-.56 2.54a3.6 3.6 0 0 0 .98 3.34l2.61 2.61c.43.43.95.72 1.51.89.03.01.05.03.08.04.02 0 .04 0 .06.01.3.08.6.13.91.13.26 0 .52-.03.79-.09l6.34-1.39-1.39 6.34a3.6 3.6 0 0 0 .98 3.34l2.61 2.61c.43.43.95.72 1.5.89.03.01.05.03.09.04.02 0 .04 0 .06.01.3.08.6.13.91.13.26 0 .52-.03.78-.08l6.35-1.39-1.7 7.75c-.07.33.03.68.27.92l4.64 4.64a1.007 1.007 0 0 0 1.69-.5l3.03-13.82a3.6 3.6 0 0 0-.98-3.34l-2.61-2.61a3.626 3.626 0 0 0-3.34-.98c-.54.12-.88.65-.76 1.19s.65.88 1.19.76 1.1.04 1.5.44L47.86 40l-4.12.9h-.02l-7.78 1.7.83-3.79 3.65-.8c.54-.12.88-.65.76-1.19s-.65-.88-1.19-.76l-2.75.6 1.39-6.35a3.6 3.6 0 0 0-.98-3.34l-2.61-2.61c-.85-.87-2.1-1.23-3.31-.96zm13.03 19.33 3.79-.83-2.61 11.9-2.96-2.96zm-10.7-.81-2.33-2.33c-.39-.39-.56-.95-.44-1.5l1.59-7.24 3.79-.83z" fill="#ffffff" opacity="1" data-original="#000000" class=""></path><path d="M40.07 2.57c-.54-.1-1.07.26-1.17.8s.25 1.07.79 1.17C53.78 7.24 64 19.63 64 34c0 16.54-13.46 30-30 30-7.08 0-13.96-2.51-19.36-7.08a1 1 0 1 0-1.29 1.53A32.03 32.03 0 0 0 34 66c17.65 0 32-14.35 32-32C66 18.68 55.09 5.46 40.07 2.57zM34 4c.55 0 1-.45 1-1s-.45-1-1-1C16.35 2 2 16.35 2 34c0 7.55 2.68 14.89 7.55 20.65.2.23.48.35.76.35a1.007 1.007 0 0 0 .77-1.65A29.978 29.978 0 0 1 4 34C4 17.46 17.46 4 34 4z" fill="#ffffff" opacity="1" data-original="#000000" class=""></path></g></svg>