<?xml version="1.0" standalone="no"?>
<!DOCTYPE svg PUBLIC "-//W3C//DTD SVG 1.1//EN" "http://www.w3.org/Graphics/SVG/1.1/DTD/svg11.dtd">
<svg xmlns="http://www.w3.org/2000/svg" xmlns:xlink="http://www.w3.org/1999/xlink" version="1.1" width="128" height="128" x="0" y="0" viewBox="0 0 128 128" style="enable-background:new 0 0 512 512" xml:space="preserve" class=""><g><path d="M64 7a2 2 0 0 0-2 2v110a2 2 0 0 0 4 0V9a2 2 0 0 0-2-2ZM12.362 70.433A16.017 16.017 0 0 0 0 86v26a2 2 0 0 0 4 0V86a12.014 12.014 0 0 1 12-12h.051a20.14 20.14 0 0 1-3.689-3.567ZM43.638 70.433A20.14 20.14 0 0 1 39.948 74H40a12.014 12.014 0 0 1 12 12v26a2 2 0 0 0 4 0V86a16.017 16.017 0 0 0-12.362-15.567ZM28 42a16 16 0 1 0 16 16 16.018 16.018 0 0 0-16-16ZM84.362 70.433A16.017 16.017 0 0 0 72 86v26a2 2 0 0 0 4 0V86a12.014 12.014 0 0 1 12-12h.051a20.14 20.14 0 0 1-3.689-3.567ZM115.638 70.433a20.14 20.14 0 0 1-3.69 3.567H112a12.014 12.014 0 0 1 12 12v26a2 2 0 0 0 4 0V86a16.017 16.017 0 0 0-12.362-15.567ZM105.499 77.213a19.61 19.61 0 0 1-10.998 0L91.02 101.6a2 2 0 0 0 .664 1.788l7 6.118a2 2 0 0 0 2.632 0l7-6.118a2 2 0 0 0 .664-1.788ZM100 42a16 16 0 1 0 16 16 16.018 16.018 0 0 0-16-16ZM95.875 32.896a2 2 0 0 0 2.865 0l11.693-12a2 2 0 0 0-2.866-2.791l-10.26 10.53-2.874-2.951a2 2 0 0 0-2.866 2.79ZM21.586 31.914a2 2 0 0 0 2.828 0L28 28.328l3.586 3.586a2 2 0 0 0 2.828-2.828L30.828 25.5l3.586-3.586a2 2 0 0 0-2.828-2.828L28 22.672l-3.586-3.586a2 2 0 0 0-2.828 2.828l3.586 3.586-3.586 3.586a2 2 0 0 0 0 2.828Z" fill="#ffffff" opacity="1" data-original="#000000" class=""/></g></svg>