<svg xmlns="http://www.w3.org/2000/svg" version="1.1" xmlns:xlink="http://www.w3.org/1999/xlink" width="512" height="512" x="0" y="0" viewBox="0 0 512 512" style="enable-background:new 0 0 512 512" xml:space="preserve" class=""><g><path d="M317 327H195c-5.523 0-10-4.477-10-10V195c0-5.523 4.477-10 10-10h122c5.523 0 10 4.477 10 10v122c0 5.523-4.477 10-10 10z" style="stroke-width:15;stroke-linecap:round;stroke-linejoin:round;stroke-miterlimit:10;" fill="none" stroke="#ffffff" stroke-width="15" stroke-linecap="round" stroke-linejoin="round" stroke-miterlimit="10" data-original="#000000" opacity="1" class=""></path><path d="M215 261v-40a6 6 0 0 1 6-6h40a6 6 0 0 1 6 6v40a6 6 0 0 1-6 6h-40a6 6 0 0 1-6-6zM213 165v20M256 165v20M299 165v20M213 327v20M256 327v20M299 327v20M347 213h-20M347 256h-20M347 299h-20M185 213h-20M185 256h-20M185 299h-20M422.904 351.186C430.363 323.834 434.7 291.133 434.7 256c0-96.1-32.45-174-72.48-174-21.08 0-40.06 21.61-53.3 56.11M308.92 373.89c13.24 34.5 32.22 56.11 53.3 56.11 18.93 0 36.164-17.42 49.074-45.947" style="stroke-width:15;stroke-linecap:round;stroke-linejoin:round;stroke-miterlimit:10;" fill="none" stroke="#ffffff" stroke-width="15" stroke-linecap="round" stroke-linejoin="round" stroke-miterlimit="10" data-original="#000000" opacity="1" class=""></path><path d="M283.4 382.09c20.66 73.26 58.76 122.41 102.35 122.41 65.58 0 118.75-111.26 118.75-248.5S451.33 7.5 385.75 7.5c-43.59 0-81.69 49.15-102.35 122.41M203.08 138.11C189.84 103.61 170.86 82 149.78 82c-40.03 0-72.48 77.9-72.48 174s32.45 174 72.48 174c21.08 0 40.06-21.61 53.3-56.11" style="stroke-width:15;stroke-linecap:round;stroke-linejoin:round;stroke-miterlimit:10;" fill="none" stroke="#ffffff" stroke-width="15" stroke-linecap="round" stroke-linejoin="round" stroke-miterlimit="10" data-original="#000000" opacity="1" class=""></path><path d="M49.161 66.977C23.665 112.556 7.5 180.329 7.5 256c0 137.24 53.17 248.5 118.75 248.5 43.59 0 81.69-49.15 102.35-122.41M228.6 129.91C207.94 56.65 169.84 7.5 126.25 7.5c-20.811 0-40.372 11.204-57.381 30.887" style="stroke-width:15;stroke-linecap:round;stroke-linejoin:round;stroke-miterlimit:10;" fill="none" stroke="#ffffff" stroke-width="15" stroke-linecap="round" stroke-linejoin="round" stroke-miterlimit="10" data-original="#000000" opacity="1" class=""></path></g></svg>