<?xml version="1.0" standalone="no"?>
<!DOCTYPE svg PUBLIC "-//W3C//DTD SVG 1.1//EN" "http://www.w3.org/Graphics/SVG/1.1/DTD/svg11.dtd">
<svg xmlns="http://www.w3.org/2000/svg" xmlns:xlink="http://www.w3.org/1999/xlink" version="1.1" width="640" height="640" x="0" y="0" viewBox="0 0 640 640" style="enable-background:new 0 0 512 512" xml:space="preserve" class=""><g><path d="M640 394.668V245.332h-64a263.51 263.51 0 0 0-22.219-53.48l45.29-45.293L493.472 40.957l-45.29 45.293A263.377 263.377 0 0 0 394.669 64V0H245.332v64a263.51 263.51 0 0 0-53.48 22.219l-45.293-45.301L40.957 146.52l45.293 45.285A263.216 263.216 0 0 0 64 245.332H0v149.336h64a263.51 263.51 0 0 0 22.219 53.48l-45.301 45.29L146.52 599.038l45.285-45.289A264.103 264.103 0 0 0 245.332 576v64h149.336v-64a263.51 263.51 0 0 0 53.48-22.219l45.29 45.29 105.601-105.598-45.289-45.293A263.88 263.88 0 0 0 576 394.668Zm-82.43-13.344a243.233 243.233 0 0 1-26.25 63.145l-4.27 7.129 41.848 41.843-75.457 75.473-41.843-41.844-7.13 4.266a242.237 242.237 0 0 1-63.144 26.25l-7.988 2.055v59.027H266.664v-59.027l-7.988-2.07a242.908 242.908 0 0 1-63.145-26.25l-7.129-4.27-41.843 41.863-75.473-75.476 41.844-41.844-4.266-7.125a242.806 242.806 0 0 1-26.25-63.145l-2.055-7.996H21.332V266.664h59.027l2.07-7.988a242.908 242.908 0 0 1 26.25-63.145l4.27-7.129-41.863-41.843 75.473-75.473 41.843 41.844 7.13-4.266a242.237 242.237 0 0 1 63.144-26.25l7.988-2.055V21.332h106.672v59.027l7.988 2.07a242.908 242.908 0 0 1 63.145 26.25l7.129 4.27 41.843-41.863 75.473 75.473-41.844 41.843 4.266 7.13a242.237 242.237 0 0 1 26.25 63.144l2.07 7.988h59.012v106.672h-59.027Zm0 0" style="stroke:none;fill-rule:nonzero;fill-opacity:1;" fill="#ffffff" data-original="#000000" opacity="1" class=""/><path d="M320 138.668c-100.094-.055-181.281 81.05-181.332 181.14-.035 71.278 41.703 135.954 106.664 165.278v.246l6.602 2.719H252l14.664 5.941v-.726A179.59 179.59 0 0 0 320 501.332c3.602 0 7.148-.117 10.668-.32v.457l11.953-1.504 9.379-1.133v-.477c98.547-17.613 164.156-111.773 146.547-210.316-15.457-86.476-90.7-149.426-178.547-149.371Zm-53.336 332.191V365.355l-3.559-3.203c-35.101-31.394-38.101-85.3-6.703-120.398A85.245 85.245 0 0 1 320 213.336c3.129 0 6.258.164 9.375.496l-49.602 49.637 9.477 65.992 65.992 9.469 49.594-49.598c.328 3.098.496 6.215.496 9.336-.191 39.762-27.64 74.191-66.355 83.25l-8.309 1.879v95.871a161.885 161.885 0 0 1-64.004-8.809ZM352 476.832v-76.363c44.29-14.215 74.414-55.293 74.664-101.801a104.254 104.254 0 0 0-5.586-34.082l-5.555-16.149-67.789 67.817-39.617-5.672-5.703-39.648 67.816-67.829-16.152-5.546A104.462 104.462 0 0 0 320 192c-58.883-.027-106.637 47.684-106.664 106.563a106.593 106.593 0 0 0 31.996 76.199v86.754c-78.098-41.258-107.969-138.004-66.719-216.106 41.25-78.101 138.008-107.969 216.106-66.719 78.097 41.25 107.972 138.004 66.719 216.106A159.95 159.95 0 0 1 352 476.8Zm0 0" style="stroke:none;fill-rule:nonzero;fill-opacity:1;" fill="#ffffff" data-original="#000000" opacity="1" class=""/></g></svg>