<?xml version="1.0" standalone="no"?>
<!DOCTYPE svg PUBLIC "-//W3C//DTD SVG 1.1//EN" "http://www.w3.org/Graphics/SVG/1.1/DTD/svg11.dtd">
<svg xmlns="http://www.w3.org/2000/svg" xmlns:xlink="http://www.w3.org/1999/xlink" version="1.1" width="64" height="64" x="0" y="0" viewBox="0 0 64 64" style="enable-background:new 0 0 512 512" xml:space="preserve" class=""><g><path d="M54.49 37.022a8.864 8.864 0 0 0-.936-1.162l6.153-6.153a1 1 0 0 0 0-1.414L59.414 28l.879-.878a2.977 2.977 0 0 0 .109-4.11l2.3-2.3a1 1 0 0 0 0-1.414l-4-4a1 1 0 0 0-1.414 0l-2.3 2.3a3 3 0 0 0-4.109.109l-.879.879-.293-.293a1.029 1.029 0 0 0-1.414 0L45 21.586V8a1 1 0 0 0-1-1h-4a1 1 0 0 0-1 1v4h-4V8a1 1 0 0 0-1-1h-4a1 1 0 0 0-1 1v11.253a9.062 9.062 0 0 0-5.084 3.247L21.4 19.99l5.239-2.911-.971-1.748-5.739 3.188L18.4 16.99l5.239-2.911-.971-1.748-5.739 3.188-1.272-1.272 5.205-2.892-.962-1.748-5.7 3.169-1.683-1.683 3.564-3.573a2.9 2.9 0 0 0 .819-2.531 3.051 3.051 0 0 0-1.624-2.233l-.793-.4A12.4 12.4 0 0 0 9.058 1a8.046 8.046 0 0 0-5.743 2.315A7.9 7.9 0 0 0 1 9.058a12.329 12.329 0 0 0 1.351 5.42l.4.793A3.048 3.048 0 0 0 4.988 16.9a3.087 3.087 0 0 0 .477.038 2.887 2.887 0 0 0 2.055-.853l3.574-3.574 1.683 1.683-3.17 5.706 1.748.97 2.892-5.2 1.287 1.287-3.151 5.671 1.748.972 2.874-5.173 1.529 1.53-3.151 5.671 1.748.972 2.874-5.172 2.826 2.826c0 .01-.011.018-.016.028a8.937 8.937 0 0 0-5.377 3.849A8.978 8.978 0 0 0 7 37c0 .168.006.339.018.515A8.98 8.98 0 0 0 1.944 50 8.99 8.99 0 0 0 10 63h44a8.99 8.99 0 0 0 8.056-13 8.982 8.982 0 0 0-7.566-12.978ZM6.105 14.667a.914.914 0 0 1-.8.253 1.03 1.03 0 0 1-.764-.557l-.4-.794A10.326 10.326 0 0 1 3 9.03 5.9 5.9 0 0 1 8.942 3h.087a10.371 10.371 0 0 1 4.54 1.132l.793.405a1.029 1.029 0 0 1 .558.764.919.919 0 0 1-.253.8ZM58 17.414 60.586 20 59 21.586 56.414 19Zm-5.707 1.708a1 1 0 0 1 1.414 0l5.172 5.172a1 1 0 0 1 0 1.414l-.879.878L51.414 20ZM49 20.414 57.586 29l-9.056 9.055a8.88 8.88 0 0 0-2.005-2.166l6.182-6.182a1 1 0 0 0 0-1.414l-3-3a1 1 0 0 0-1.414 0l-6.181 6.181a8.918 8.918 0 0 0-2.167-2Zm-5.385 13.972a8.978 8.978 0 0 0-.438-1.148L49 27.414 50.586 29l-5.824 5.824a9.021 9.021 0 0 0-1.147-.438ZM31 9h2v3a2 2 0 0 0 2 2h4a2 2 0 0 0 2-2V9h2v14.071a9.037 9.037 0 0 0-2 .007V17a1 1 0 0 0-1-1h-6a1 1 0 0 0-1 1v2.241A9.031 9.031 0 0 0 31 19Zm8 14.529c-.052.019-.108.028-.16.048A8.962 8.962 0 0 0 35 19.956V18h4ZM60.056 50.5A6.991 6.991 0 0 1 54 61H10a6.991 6.991 0 0 1-6.056-10.5 1 1 0 0 0 0-1 6.982 6.982 0 0 1 4.4-10.292 1 1 0 0 0 .752-1.127A6.8 6.8 0 0 1 9 37a6.974 6.974 0 0 1 8.7-6.784 1 1 0 0 0 1.124-.5 6.956 6.956 0 0 1 4.9-3.592 1 1 0 0 0 .612-.38l1.785 1.785A5.961 5.961 0 0 0 25 31h2a4 4 0 0 1 4-4v-2a5.961 5.961 0 0 0-3.471 1.115l-2.189-2.189a6.973 6.973 0 0 1 12.106 1.343 1 1 0 0 0 1.376.5 7.028 7.028 0 0 1 2.724-.729l-3.491 3.491A9.061 9.061 0 0 0 35 28v2a6.962 6.962 0 0 1 6.823 5.426 1 1 0 0 0 .751.751A6.964 6.964 0 0 1 48 43h2a9.061 9.061 0 0 0-.531-3.055l2.664-2.664a7.006 7.006 0 0 1 .926 1.224A1.124 1.124 0 0 0 54 39a6.991 6.991 0 0 1 6.056 10.5 1 1 0 0 0 0 1Z" fill="#ffffff" opacity="1" data-original="#000000" class=""/><circle cx="20.5" cy="46.5" r="1.5" fill="#ffffff" opacity="1" data-original="#000000" class=""/><circle cx="25.5" cy="46.5" r="1.5" fill="#ffffff" opacity="1" data-original="#000000" class=""/><path d="M32.871 37.129a3 3 0 1 0-5.579 2.165l-1.359 1.359a6.913 6.913 0 0 0-5.866 0l-1.359-1.359a3 3 0 1 0-5.579-2.165 3 3 0 1 0 2.165 5.579l1.359 1.359A6.94 6.94 0 0 0 16 47a3.388 3.388 0 0 0 1 2.414l.086.086-1.792 1.792a3 3 0 1 0-2.165 5.579 3 3 0 1 0 5.579-2.165l.781-.781A1.96 1.96 0 0 0 20 54h6a1.96 1.96 0 0 0 .511-.075l.781.781a3 3 0 1 0 5.579 2.165 3 3 0 1 0-2.165-5.579L28.914 49.5l.086-.085A3.392 3.392 0 0 0 30 47a6.943 6.943 0 0 0-.653-2.933l1.359-1.359a3 3 0 1 0 2.165-5.579Zm-16.75 3.578a1 1 0 0 0-1.415 0A.989.989 0 0 1 14 41a1 1 0 0 1 0-2 1 1 0 0 0 1-1 1 1 0 1 1 1.707.707 1 1 0 0 0 0 1.414l1.652 1.653a7.02 7.02 0 0 0-.585.585ZM16 57a1 1 0 0 1-1-1 1 1 0 0 0-1-1 1 1 0 0 1 0-2 .989.989 0 0 1 .706.292 1 1 0 0 0 .707.294 1 1 0 0 0 .707-.293L18 51.414V52a1.96 1.96 0 0 0 .075.511l-1.368 1.368a1 1 0 0 0 0 1.414A1 1 0 0 1 16 57Zm10-5h-2v-2h-2v2h-2v-1a3.388 3.388 0 0 0-1-2.414L18.414 48A1.4 1.4 0 0 1 18 47a5 5 0 0 1 10 0 1.4 1.4 0 0 1-.414 1l-.586.585A3.392 3.392 0 0 0 26 51Zm4.586 1.586a1 1 0 0 0 .707-.294A.989.989 0 0 1 32 53a1 1 0 0 1 0 2 1 1 0 0 0-1 1 1 1 0 1 1-1.707-.707 1 1 0 0 0 0-1.414l-1.368-1.368A1.96 1.96 0 0 0 28 52v-.586l1.879 1.879a1 1 0 0 0 .707.293ZM32 41a.989.989 0 0 1-.706-.292 1 1 0 0 0-1.415 0l-1.653 1.652a6.906 6.906 0 0 0-.586-.587l1.653-1.652a1 1 0 0 0 0-1.414A1 1 0 1 1 31 38a1 1 0 0 0 1 1 1 1 0 0 1 0 2Z" fill="#ffffff" opacity="1" data-original="#000000" class=""/><circle cx="8.5" cy="6.5" r="1.5" fill="#ffffff" opacity="1" data-original="#000000" class=""/><path d="M48.916 51.084A5.009 5.009 0 0 0 44 47v2a3 3 0 0 1 3 3 1 1 0 0 0 1 1 3 3 0 0 1 3 3h2a5.009 5.009 0 0 0-4.084-4.916ZM40 40a3 3 0 1 0 3 3 3 3 0 0 0-3-3Zm0 4a1 1 0 1 1 1-1 1 1 0 0 1-1 1ZM55 42a3 3 0 1 0 3 3 3 3 0 0 0-3-3Zm0 4a1 1 0 1 1 1-1 1 1 0 0 1-1 1ZM12 46a3 3 0 1 0-3 3 3 3 0 0 0 3-3Zm-3 1a1 1 0 1 1 1-1 1 1 0 0 1-1 1ZM38 55h2v2h-2zM22 34h2v2h-2zM55 53h2v2h-2zM33 46h2v2h-2zM44 56h2v2h-2zM33 32h2v2h-2zM49 11a3 3 0 0 0 3 3h2a2.992 2.992 0 0 0 1.566-5.547l1.266-1.9-1.664-1.11L53.465 8h-.93l-1.7-2.555-1.664 1.11 1.266 1.9A2.991 2.991 0 0 0 49 11Zm5 1h-2a1 1 0 0 1 0-2h2a1 1 0 0 1 0 2ZM1 26a3 3 0 0 0 3 3h2a2.992 2.992 0 0 0 1.566-5.547l1.266-1.9-1.664-1.11L5.465 23h-.93l-1.7-2.555-1.664 1.11 1.266 1.9A2.991 2.991 0 0 0 1 26Zm5 1H4a1 1 0 0 1 0-2h2a1 1 0 0 1 0 2Z" fill="#ffffff" opacity="1" data-original="#000000" class=""/></g></svg>