<svg xmlns="http://www.w3.org/2000/svg" version="1.1" xmlns:xlink="http://www.w3.org/1999/xlink" width="512" height="512" x="0" y="0" viewBox="0 0 682.667 682.667" style="enable-background:new 0 0 512 512" xml:space="preserve" class=""><g><defs><clipPath id="a" clipPathUnits="userSpaceOnUse"><path d="M0 512h512V0H0Z" fill="#ffffff" opacity="1" data-original="#000000"></path></clipPath></defs><g clip-path="url(#a)" transform="matrix(1.33333 0 0 -1.33333 0 682.667)"><path d="M0 0c19.677 45.831 73.269 113.729 143.598 94.038 59.282-16.6 41.418-71.102 17.102-111.005" style="stroke-width:15;stroke-linecap:butt;stroke-linejoin:miter;stroke-miterlimit:10;stroke-dasharray:none;stroke-opacity:1" transform="translate(168.26 300.378)" fill="none" stroke="#ffffff" stroke-width="15" stroke-linecap="butt" stroke-linejoin="miter" stroke-miterlimit="10" stroke-dasharray="none" stroke-opacity="" data-original="#000000" opacity="1" class=""></path><path d="M0 0c-11.295-2.269-22.508-8.029-33.838-17.333-11.969-9.83-23.364-23.308-32.483-38.12" style="stroke-width:15;stroke-linecap:butt;stroke-linejoin:miter;stroke-miterlimit:10;stroke-dasharray:15, 15;stroke-dashoffset:0;stroke-opacity:1" transform="translate(275.846 363.798)" fill="none" stroke="#ffffff" stroke-width="15" stroke-linecap="butt" stroke-linejoin="miter" stroke-miterlimit="10" stroke-dasharray="15, 15" stroke-dashoffset="0" stroke-opacity="" data-original="#000000" opacity="1" class=""></path><path d="M0 0c-7.922-15.493-22.011-27.212-44.409-30.563-67.976-10.169-86.634 58.408-77.61 126.852 0 0 6.494 28.836-1.606 44.425 0 0-40.143 63.693-29.973 102.766a95.702 95.702 0 0 0 1.051 3.721" style="stroke-width:15;stroke-linecap:butt;stroke-linejoin:miter;stroke-miterlimit:10;stroke-dasharray:none;stroke-opacity:1" transform="translate(315.589 39.07)" fill="none" stroke="#ffffff" stroke-width="15" stroke-linecap="butt" stroke-linejoin="miter" stroke-miterlimit="10" stroke-dasharray="none" stroke-opacity="" data-original="#000000" opacity="1" class=""></path><path d="M0 0c3.328-16.173 3.724-33.712-.373-49.266" style="stroke-width:15;stroke-linecap:butt;stroke-linejoin:miter;stroke-miterlimit:10;stroke-dasharray:none;stroke-opacity:1" transform="translate(321.32 102.531)" fill="none" stroke="#ffffff" stroke-width="15" stroke-linecap="butt" stroke-linejoin="miter" stroke-miterlimit="10" stroke-dasharray="none" stroke-opacity="" data-original="#000000" opacity="1" class=""></path><path d="M0 0c-4.905-24.04-23.909-40.462-42.446-36.679-18.536 3.782-29.587 26.337-24.681 50.376 4.905 24.04 23.909 40.462 42.445 36.679C-6.145 46.594 4.905 24.04 0 0Z" style="stroke-width:15;stroke-linecap:butt;stroke-linejoin:miter;stroke-miterlimit:10;stroke-dasharray:none;stroke-opacity:1" transform="translate(376.466 453.582)" fill="none" stroke="#ffffff" stroke-width="15" stroke-linecap="butt" stroke-linejoin="miter" stroke-miterlimit="10" stroke-dasharray="none" stroke-opacity="" data-original="#000000" opacity="1" class=""></path><path d="M0 0c0-15.353-11.742-27.799-26.227-27.799-14.484 0-26.227 12.446-26.227 27.799s11.743 27.799 26.227 27.799C-11.742 27.799 0 15.353 0 0Z" style="stroke-width:15;stroke-linecap:butt;stroke-linejoin:miter;stroke-miterlimit:10;stroke-dasharray:none;stroke-opacity:1" transform="translate(275.846 454.262)" fill="none" stroke="#ffffff" stroke-width="15" stroke-linecap="butt" stroke-linejoin="miter" stroke-miterlimit="10" stroke-dasharray="none" stroke-opacity="" data-original="#000000" opacity="1" class=""></path><path d="M0 0c5.892-11.876 1.586-26.009-9.619-31.568-11.204-5.559-25.063-.438-30.955 11.438-5.892 11.876-1.586 26.009 9.618 31.568C-19.751 16.997-5.892 11.876 0 0Z" style="stroke-width:15;stroke-linecap:butt;stroke-linejoin:miter;stroke-miterlimit:10;stroke-dasharray:none;stroke-opacity:1" transform="translate(204.833 422.481)" fill="none" stroke="#ffffff" stroke-width="15" stroke-linecap="butt" stroke-linejoin="miter" stroke-miterlimit="10" stroke-dasharray="none" stroke-opacity="" data-original="#000000" opacity="1" class=""></path><path d="M0 0c2.942-10.605-2.784-21.452-12.789-24.228-10.005-2.775-20.501 3.572-23.442 14.177C-39.173.553-33.448 11.4-23.443 14.176S-2.942 10.605 0 0Z" style="stroke-width:15;stroke-linecap:butt;stroke-linejoin:miter;stroke-miterlimit:10;stroke-dasharray:none;stroke-opacity:1" transform="translate(159.81 361.289)" fill="none" stroke="#ffffff" stroke-width="15" stroke-linecap="butt" stroke-linejoin="miter" stroke-miterlimit="10" stroke-dasharray="none" stroke-opacity="" data-original="#000000" opacity="1" class=""></path><path d="M0 0c12.407 12.843 22.294 21.045 22.294 21.045s68.078-60.91 67.159-110.048c-.815-43.579-67.751-77.399-67.751-77.399S-49.756-130.5-48.932-86.416c.484 25.857 20.18 54.256 38.735 75.363" style="stroke-width:15;stroke-linecap:butt;stroke-linejoin:miter;stroke-miterlimit:10;stroke-dasharray:none;stroke-opacity:1" transform="translate(299.731 268.957)" fill="none" stroke="#ffffff" stroke-width="15" stroke-linecap="butt" stroke-linejoin="miter" stroke-miterlimit="10" stroke-dasharray="none" stroke-opacity="" data-original="#000000" opacity="1" class=""></path><path d="M0 0v-187.447" style="stroke-width:15;stroke-linecap:butt;stroke-linejoin:miter;stroke-miterlimit:10;stroke-dasharray:none;stroke-opacity:1" transform="translate(322.026 290.002)" fill="none" stroke="#ffffff" stroke-width="15" stroke-linecap="butt" stroke-linejoin="miter" stroke-miterlimit="10" stroke-dasharray="none" stroke-opacity="" data-original="#000000" opacity="1" class=""></path><path d="m0 0 46.196-32L86.969 3.361" style="stroke-width:15;stroke-linecap:butt;stroke-linejoin:miter;stroke-miterlimit:10;stroke-dasharray:none;stroke-opacity:1" transform="translate(275.83 241)" fill="none" stroke="#ffffff" stroke-width="15" stroke-linecap="butt" stroke-linejoin="miter" stroke-miterlimit="10" stroke-dasharray="none" stroke-opacity="" data-original="#000000" opacity="1" class=""></path><path d="m0 0 68.955-49.311 62.58 54.275" style="stroke-width:15;stroke-linecap:butt;stroke-linejoin:miter;stroke-miterlimit:10;stroke-dasharray:none;stroke-opacity:1" transform="translate(253.071 197.692)" fill="none" stroke="#ffffff" stroke-width="15" stroke-linecap="butt" stroke-linejoin="miter" stroke-miterlimit="10" stroke-dasharray="none" stroke-opacity="" data-original="#000000" opacity="1" class=""></path></g></g></svg>