<svg xmlns="http://www.w3.org/2000/svg" version="1.1" xmlns:xlink="http://www.w3.org/1999/xlink" width="512" height="512" x="0" y="0" viewBox="0 0 128 128" style="enable-background:new 0 0 512 512" xml:space="preserve" class=""><g><path d="M107.68 108.34a1 1 0 0 0 0-2h-6.76a1 1 0 1 0 0 2z" fill="#ffffff" opacity="1" data-original="#000000" class=""></path><path d="M126.86 106.46a3.13 3.13 0 0 0-.34-2.69 3.4 3.4 0 0 0-2.46-1.57c-1.68-.2-4.49-.85-4.49-3a.57.57 0 0 0 0-.13l-2-15a1.11 1.11 0 0 0-.07-.26c-.05-.12-4.82-11.24-8.33-17.73a15.91 15.91 0 0 1-2-7.83c1.85 2.3 3.45 4.59 3.48 5.22-.38 1.35.29 2.92.89 4.31.17.41.34.79.45 1.11a2.35 2.35 0 0 0 4.48-.08 11.24 11.24 0 0 0 .52-5.32c-.52-2.07-7-14.45-8.23-16.88a16.5 16.5 0 0 0-3-12.35V32a4 4 0 0 0 4.42-1.66l1.12-1.73a4 4 0 0 0-.29-4.7v-.06c.22-1.11.59-3.69-.22-5.31-.89-1.79-2.58-4.16-7-4.16a6.79 6.79 0 0 0-5.5 2.86c-1.73 2.34-2.1 5.66-1 9.11.34 1.07.58 2.88.14 3.66-.74.37-2.32 1.55-3.11 5-.37 1.65-1.37 4.88-2.33 8-2 6.49-2.56 8.49-2.44 9.24a26.82 26.82 0 0 0 1.31 3.65c.86 2.19 2.65 6.74 2.56 7.64a38.26 38.26 0 0 0 0 4.55 3.75 3.75 0 0 0 2 3.16 10.34 10.34 0 0 1 .73 2.12 15 15 0 0 1-3.05 12.69c-1.92 2.39-3.47 4.49-4.6 6.24-1.47 2.27-2.81 4.28-3.77 5.7a4.43 4.43 0 0 0 .41 5.48l2.73 2.92h-7.61c0-.08 0-.15.07-.23a3.58 3.58 0 0 0-.58-2.74 3.87 3.87 0 0 0-2.55-1.62l-.88-.14a10.64 10.64 0 0 1-1.7-.33 2.64 2.64 0 0 1-1.73-2.61c.25-5.11.56-8.86.86-10.57.72-4 .18-14.67-1-20.77a17.89 17.89 0 0 1 .76-5.19l.74.2L83.1 76a1 1 0 0 0 1.39.29 1 1 0 0 0 .29-1.38l-4.94-7.54c1.1-1.2 3.16-4 1.83-6.82-1.2-2.57-3.53-3.46-6.22-4.48l-.86-.34h-.09c.32-2.77.84-10.91-3.18-16.26a2.15 2.15 0 0 1-.32-1.8c.08-.22.26-.51.9-.64 3.44-.7 5.25-3.05 4.71-6.15a5.17 5.17 0 0 0-1.72-3 6 6 0 0 0-6.35-5.58c-3.19 0-7 2-7 11.33a4.89 4.89 0 0 1-1.45 3.12l-4.16-6.45 1-5.1a1 1 0 0 0-.46-1.06l-7.94-4.81a1 1 0 0 0-1.07 0 1 1 0 0 0-.44 1l1.44 9.22a1 1 0 0 0 .78.82l5 1 4.49 7A8.39 8.39 0 0 0 56.27 44a52.48 52.48 0 0 0 1.36 9.35 41.14 41.14 0 0 1 1 6.54 12.69 12.69 0 0 1-.49 3c-.55 2.23-1.17 4.76.58 8.28 1.94 3.87 1.78 10.92 1.7 12.8-1.39 1-6 4.5-8.53 8.47-1.47 2.27-2.81 4.27-3.77 5.7a4.4 4.4 0 0 0 .41 5.47l2.47 2.61h-9a10.89 10.89 0 0 0 .74-4.41 20.81 20.81 0 0 0-5.39-14.54c.28-2.57 1.08-10.72.44-12.78a.48.48 0 0 1 0-.37 2.64 2.64 0 0 1 1.63-.45c2-.11 5.71-1.35 5.71-5.24 0-2.93-1.5-3.69-2.31-4.09h-.09a4.76 4.76 0 0 0-.81-4 6.57 6.57 0 0 0-5.68-2.77c-4.47 0-6.56 3.92-7.22 6.63-1.57-.1-4.72-.07-6.81 1.47S10.89 74.14 7.78 77a6.67 6.67 0 0 0-2.17 6 10.12 10.12 0 0 0 2.62 5.1v.67c.07 1.88 0 6.46-2 8.48-1.68 1.68-5.51 5.9-4.83 8.8a1.21 1.21 0 0 1 .05.18 1 1 0 0 0-.95 1 1 1 0 0 0 1 1h61.19a1 1 0 0 0 0-2h-2.36a2.72 2.72 0 0 0-.6-.89l-2.66-3.19-.81-1a1.94 1.94 0 0 1 .18-2.6l8.74-8.36c.31 3.95.93 12.34 1 15.14a3.12 3.12 0 0 0 3 3.1H94a1 1 0 0 0 1-1 1 1 0 0 0-.83-1c.07-.12.15-.24.21-.37a3.29 3.29 0 0 0-.3-3.51l-1.17-1.61a2 2 0 0 1 .24-2.65l9.55-10.66a7.06 7.06 0 0 0 1.29-2.07l2.01-5.14 2.3 2.77c-.28 1.2-.35 3.9 2 9.07 2.08 4.54 2.62 10.15 2.76 13.09a3.11 3.11 0 0 0 .26 1.11 1 1 0 0 0 .39 1.93h12.79a1 1 0 0 0 1-1 1 1 0 0 0-.64-.93zm-12.23-38.14a.36.36 0 0 1-.67 0c-.13-.37-.32-.81-.51-1.27-.42-1-1-2.31-.81-3 .46-1.64-2.52-5.55-5.23-8.67.19-1.73.51-3.53.86-5.46 3 5.73 6.53 12.84 6.85 14.11a9.48 9.48 0 0 1-.49 4.29zM49.37 22.15l5.5 3.34-.78 3.83-3.72-.76zM9.12 78.44C12 75.82 20.92 69 23.35 67.25c2.15-1.59 6.24-1 6.28-1a1 1 0 0 0 .74-.19 1 1 0 0 0 .4-.66c0-.24.89-5.85 5.42-5.85a4.63 4.63 0 0 1 4 1.9 2.78 2.78 0 0 1 .54 2.26 1.79 1.79 0 0 0 1.11 2.42c.65.33 1.21.61 1.21 2.31 0 3-3.67 3.23-3.77 3.24-.37 0-2.29.06-3.18 1.27a2.27 2.27 0 0 0-.29 2.14c.44 1.4-.11 8.38-.57 12.44a1 1 0 0 0 .29.82 18.73 18.73 0 0 1 5.14 13.47c0 2.6-.53 3.67-.85 4.08a1.47 1.47 0 0 1-.66.33h-2.74a1 1 0 0 1-.6-.42l.11-.94a2.8 2.8 0 0 1 .75-.53 3.4 3.4 0 0 0 1.57-1.46c.18-.43.61-1.44-2.08-7.18a20.83 20.83 0 0 0-3.13-5c-3.57-4.12-2.81-10-2.8-10.08a1 1 0 0 0-.39-.93 1 1 0 0 0-1-.12l-8.75 3.84a1 1 0 0 0-.31 1.59c2.92 3 6.24 6.72 6.52 7.57a14.17 14.17 0 0 1 0 4.4c-.07 1-.16 2.2-.2 3.46-.08 2.33 1.91 3.2 2.77 3.57a1.32 1.32 0 0 1 .77 1.59 1.19 1.19 0 0 1-.6.61h-5.41a.77.77 0 0 1-.46-.26.51.51 0 0 1-.18-.3c0-.21.05-.43.08-.64.44-2.72 1.46-9.07-3.86-11.66C10.25 89 7.94 85.13 7.59 82.67a4.75 4.75 0 0 1 1.53-4.23zm20.57 23.74c-1.19-.52-1.59-.94-1.56-1.66 0-1.22.12-2.36.2-3.38.16-2.19.3-3.93-.12-5.18s-4-5.19-6-7.3l5.94-2.61a15.24 15.24 0 0 0 3.37 10 19.07 19.07 0 0 1 2.83 4.52c1.71 3.66 2.07 5.28 2 5.55a2.83 2.83 0 0 1-.74.52 2.89 2.89 0 0 0-1.72 2l-.13 1.06a.49.49 0 0 0 0 .12 1.61 1.61 0 0 0 .06.44h-2.3a3.32 3.32 0 0 0-1.83-4.08zm-18.8 1.55-1.12-.67c3.36-2.79 6.92-6 7.11-7.38l.17-1.18c.42.22.84.44 1.29.66 3.51 1.7 3.4 5.59 2.76 9.56 0 .24-.06.47-.09.68a2.27 2.27 0 0 0 .07.82H12a3 3 0 0 0 0-.42 2.44 2.44 0 0 0-1.11-2.07zm-3.25-5.07c2.11-2.11 2.57-5.89 2.6-8.59a32.81 32.81 0 0 0 4.93 3.41l-.25 1.85c-.33.86-4.15 4.35-7.51 7.09a1 1 0 0 0-.36.84 1 1 0 0 0 .48.79l2.33 1.4a.39.39 0 0 1 .2.35.41.41 0 0 1-.41.42H4c-.55-.22-.64-.5-.67-.63-.28-1.25 1.49-4.1 4.31-6.93zm47.42-1.59a3.92 3.92 0 0 0-.38 5.27l3.19 3.88h-4.14L50 102.28a2.41 2.41 0 0 1-.22-3c1-1.43 2.31-3.45 3.79-5.74 2.77-4.28 8.34-8.16 8.39-8.2a1 1 0 0 0 .43-.75 46.93 46.93 0 0 0-.3-8.58A27.26 27.26 0 0 1 65 87.56zm13.1 8.19c-.06-3.76-1.11-16.81-1.16-17.37-.27-11-5.52-16.73-6.52-17.72-1.35-2.8-.89-4.75-.38-6.81a14.15 14.15 0 0 0 .55-3.47A41.75 41.75 0 0 0 59.59 53a51.51 51.51 0 0 1-1.32-9c0-2.12 1.25-3.52 2.58-5s2.72-3.05 2.72-5.33c0-6.19 1.68-9.33 5-9.33A4.1 4.1 0 0 1 73 28.43a1 1 0 0 0 .45.82 3.27 3.27 0 0 1 1.27 2c.47 2.7-1.76 3.57-3.14 3.85a3.05 3.05 0 0 0-2.42 1.9 4.08 4.08 0 0 0 .56 3.66c3.34 4.45 3.14 11.28 2.85 14.28-1-.44-1.81-.8-2.25-1l-2.54-10.71a1 1 0 1 0-1.94.47l2.64 11.12a1 1 0 0 0 .53.67c.07 0 1.84.91 4.85 2.09l.88.33c2.47 1 4.26 1.63 5.11 3.46.72 1.55-.33 3.25-1.15 4.24l-1.59-2.45.27.08a1.09 1.09 0 0 0 .26 0 1 1 0 0 0 .26-2L73.12 60h-.22l-5.09-1.32c-3.67-.94-5.16-8.3-5.42-11a1 1 0 0 0-2 .19c0 .46 1.13 11.31 6.91 12.8l4.19 1.08c-.41 1.6-1.08 4.61-.79 6.09 1.25 6.28 1.65 16.61 1 20-.4 2.29-.7 7.15-.88 10.82a4.64 4.64 0 0 0 3 4.59 12.27 12.27 0 0 0 2.09.43l.85.13a1.83 1.83 0 0 1 1.23.79 1.49 1.49 0 0 1 .26 1.2c-.09.47-.29.63-.79.63h-8.32a1.13 1.13 0 0 1-.98-1.17zm33.93-20.46a5.34 5.34 0 0 1-.93 1.49l-9.5 10.6a3.91 3.91 0 0 0-.4 5.24l1.17 1.62a1.27 1.27 0 0 1 .1 1.42 2.18 2.18 0 0 1-1.89 1.21l-4-4.27a2.42 2.42 0 0 1-.22-3c1.3-1.94 2.58-3.87 3.79-5.73a73.51 73.51 0 0 1 4.48-6.08 17 17 0 0 0 3.44-14.39c-.11-.45-.24-.87-.37-1.28a3.8 3.8 0 0 0 .82-.21l6 7.25zm10.09 6.63c-2.7-5.88-1.85-7.94-1.85-7.94a1 1 0 0 0-.09-1.14L100.17 70.2a3.67 3.67 0 0 0 .8-2.43 23.63 23.63 0 0 0-.7-5.9c-.38-1-1.3-4.31-2.52-9a2.55 2.55 0 0 1 0-1.5l2.53-7.37a1 1 0 1 0-1.9-.64l-2.48 7.38a4.6 4.6 0 0 0-.09 2.65c.73 2.78 2 7.68 2.58 9.16a23.82 23.82 0 0 1 .58 5.3 1.73 1.73 0 0 1-.49 1.29A1.78 1.78 0 0 1 95.42 68a34.63 34.63 0 0 1 0-4.26c.13-1.28-1-4.36-2.69-8.57-.53-1.36-1.14-2.9-1.19-3.16 0-.73 1.38-5.17 2.37-8.41s2-6.42 2.38-8.15c.7-3.12 2.07-3.67 2.06-3.67a1 1 0 0 0 .49-.3c1.55-1.79.5-5.33.37-5.72-.87-2.84-.61-5.51.73-7.33a4.86 4.86 0 0 1 3.9-2.05c3.22 0 4.4 1.47 5.19 3.05.51 1 .24 3.27 0 4.45a1 1 0 0 0 .21.88l.36.43a2 2 0 0 1 .14 2.33l-1.11 1.73a2 2 0 0 1-2.25.82l-1.19-.38a1 1 0 0 0-.89.15 1 1 0 0 0-.41.8v4.06a1 1 0 0 0 .25.66 14.48 14.48 0 0 1 2.76 11.35c-.16 1-.33 1.9-.5 2.82-.38 2.12-.74 4.15-.93 6.13a18.91 18.91 0 0 0 2.07 11.42c3.26 6 7.66 16.19 8.2 17.44l1.92 14.78c0 2.62 2.31 4.39 6.25 4.87a1.41 1.41 0 0 1 1 .65 1.18 1.18 0 0 1 .13 1 .63.63 0 0 1-.68.51.53.53 0 0 0-.18 0h-7.8a1.18 1.18 0 0 1-1.18-1.13c-.2-3.03-.8-8.93-3.02-13.77zM6.91 112.63a1 1 0 0 0 1 1h113.5a1 1 0 0 0 0-2H7.91a1 1 0 0 0-1 1z" fill="#ffffff" opacity="1" data-original="#000000" class=""></path></g></svg>