<?xml version="1.0" encoding="UTF-8"?>
<svg id="Layer_1" data-name="Layer 1" xmlns="http://www.w3.org/2000/svg" viewBox="0 0 512 512">
  <g>
    <path d="M437.02,74.98C388.67,26.63,324.38,0,256,0c-62.11,0-122.02,22.53-168.69,63.45-3.39,2.97-3.73,8.14-.76,11.53s8.14,3.73,11.53.76c43.69-38.3,99.77-59.39,157.91-59.39,132.15,0,239.66,107.51,239.66,239.66s-107.51,239.66-239.66,239.66S16.34,388.15,16.34,256c0-58.15,21.09-114.23,59.4-157.91,2.92-3.44,2.51-8.6-.93-11.52-3.36-2.86-8.39-2.53-11.35.75C22.53,133.98,0,193.89,0,256c0,68.38,26.63,132.67,74.98,181.02s112.64,74.98,181.02,74.98,132.67-26.63,181.02-74.98,74.98-112.64,74.98-181.02-26.63-132.67-74.98-181.02h0Z" style="fill: #fff; stroke-width: 0px;"/>
    <path d="M333.03,321.47c-3.19-3.19-8.36-3.19-11.55,0-3.79,3.79-7.9,7.24-12.29,10.32l-8.23-14.25c18.95-13.89,31.3-36.29,31.3-61.54,0-42.05-34.21-76.26-76.26-76.26-28.89,0-54.08,16.15-67.02,39.9l-15.22-6.25c4.38-8.44,10.04-16.15,16.77-22.87,3.18-3.2,3.15-8.38-.05-11.55-3.18-3.16-8.32-3.16-11.5,0-20.58,20.57-31.91,47.93-31.91,77.03,0,4.51,3.66,8.17,8.17,8.17s8.17-3.66,8.17-8.17c0-9.32,1.39-18.59,4.14-27.49l15.23,6.25c-2.01,6.9-3.03,14.05-3.03,21.24,0,42.05,34.21,76.26,76.26,76.26,10.62,0,21.12-2.22,30.82-6.53l8.22,14.25c-4.85,2.27-9.89,4.1-15.07,5.49-4.36,1.17-6.95,5.65-5.78,10.01.96,3.57,4.19,6.05,7.88,6.06.71,0,1.42-.09,2.11-.28,9.18-2.46,17.99-6.11,26.21-10.86.02-.01.04-.02.06-.03.04-.02.08-.05.12-.08,8.2-4.75,15.74-10.55,22.44-17.25,3.19-3.19,3.19-8.36,0-11.55h0s0,0,0,0ZM196.09,256c0-33.04,26.88-59.91,59.91-59.91s59.91,26.88,59.91,59.91-26.88,59.91-59.91,59.91-59.91-26.88-59.91-59.91ZM318.64,364.52c-18.95,10.97-40.61,16.76-62.64,16.76-4.51,0-8.17,3.66-8.17,8.17s3.66,8.17,8.17,8.17c24.9,0,49.39-6.56,70.83-18.96,3.9-2.26,5.24-7.25,2.98-11.16h0c-2.26-3.91-7.25-5.25-11.16-2.99,0,0,0,0,0,0h0Z" style="fill: #fff; stroke-width: 0px;"/>
    <path d="M413.92,402.33c3.42,2.94,8.58,2.55,11.52-.87,34.74-40.43,53.88-92.09,53.88-145.46,0-123.14-100.18-223.32-223.32-223.32S32.68,132.86,32.68,256s100.18,223.32,223.32,223.32c53.37,0,105.03-19.13,145.46-53.88,3.44-2.91,3.87-8.07.96-11.51-2.91-3.44-8.07-3.87-11.51-.96-.03.03-.06.05-.09.08-37.47,32.2-85.35,49.93-134.81,49.93-114.13,0-206.98-92.85-206.98-206.98S141.87,49.02,256,49.02s206.98,92.85,206.98,206.98c0,49.46-17.73,97.34-49.93,134.81-2.94,3.42-2.55,8.58.87,11.52h0Z" style="fill: #fff; stroke-width: 0px;"/>
  </g>
  <path d="M115.2,283.68l-30.15,43.73c-2.18,3.15-1.56,7.53,1.41,9.96l31.26,25.6c2.96,2.43,7.38,2.17,10.04-.58l36.93-38.17-49.49-40.53ZM98.79,334.66c-1-.82-1.21-2.29-.44-3.36l23.39-32.47c.8-1.11,2.35-1.36,3.46-.56,1.16.82,1.36,2.34.56,3.46l-23.39,32.47c-.83,1.15-2.46,1.38-3.58.47h0ZM111.85,342.15c-.87,1.06-2.43,1.21-3.48.35s-1.21-2.43-.35-3.48l25.31-30.9c.87-1.06,2.43-1.21,3.48-.35s1.21,2.43.35,3.48l-25.31,30.9ZM148.55,320.78l-27.22,29.33c-.89.95-2.41,1.11-3.5.13-1-.93-1.06-2.5-.13-3.5l27.22-29.33c.93-1,2.49-1.01,3.5-.13,1,.93,1.06,2.5.13,3.5h0ZM174.26,312.84l-11.49-9.41,1.57-1.92c2.59-3.17,2.13-7.86-1.04-10.45l-15.32-12.55c-3.17-2.59-7.86-2.13-10.45,1.04l-1.57,1.92-11.49-9.41c-2.12-1.73-5.23-1.42-6.97.69s-1.42,5.23.69,6.97l49.8,40.78c2.12,1.73,5.24,1.42,6.97-.69s1.42-5.23-.69-6.97ZM158.94,300.29l-19.15-15.69,1.57-1.92c.87-1.06,2.43-1.21,3.48-.35l15.32,12.55c1.06.87,1.21,2.43.35,3.48l-1.57,1.92Z" style="fill: #fff; stroke-width: 0px;"/>
  <path d="M117.65,128.96l-14.47,51.11c-1.05,3.68.95,7.63,4.54,8.97l37.83,14.18c3.59,1.34,7.68-.32,9.32-3.78l22.68-48.03-59.9-22.45ZM118.52,182.51c-1.21-.45-1.88-1.78-1.5-3.04l11.7-38.27c.4-1.31,1.78-2.04,3.09-1.65,1.36.4,2.04,1.78,1.65,3.09l-11.7,38.27c-.41,1.36-1.89,2.1-3.24,1.6h0ZM133.29,185.41c-.48,1.28-1.91,1.93-3.19,1.45s-1.93-1.91-1.45-3.19l14.02-37.4c.48-1.28,1.91-1.93,3.19-1.45s1.93,1.91,1.45,3.19l-14.02,37.4ZM161.16,153.36l-16.33,36.53c-.53,1.19-1.93,1.82-3.27,1.25-1.25-.56-1.81-2.02-1.25-3.27l16.33-36.53c.56-1.25,2.03-1.76,3.27-1.25,1.25.56,1.81,2.02,1.25,3.27h0ZM182.95,137.57l-13.91-5.21.87-2.32c1.44-3.83-.51-8.12-4.35-9.56l-18.55-6.95c-3.83-1.44-8.12.51-9.56,4.35l-.87,2.32-13.91-5.21c-2.56-.96-5.41.34-6.37,2.9s.34,5.41,2.9,6.37l60.27,22.59c2.56.96,5.41-.34,6.37-2.9s-.34-5.41-2.9-6.37ZM164.4,130.62l-23.18-8.69.87-2.32c.48-1.28,1.91-1.93,3.19-1.45l18.55,6.95c1.28.48,1.93,1.91,1.45,3.19l-.87,2.32Z" style="fill: #fff; stroke-width: 0px;"/>
  <path d="M265.03,118.45l17.01,50.32c1.23,3.63,5.1,5.75,8.82,4.83l39.21-9.74c3.72-.92,6.15-4.61,5.54-8.39l-8.5-52.43-62.08,15.42ZM296.07,162.1c-1.26.31-2.56-.4-2.95-1.66l-12.03-38.17c-.41-1.31.31-2.7,1.61-3.11,1.35-.44,2.69.31,3.11,1.61l12.03,38.17c.43,1.35-.37,2.8-1.77,3.15h0ZM309.89,156.12c.33,1.33-.48,2.67-1.81,3s-2.67-.48-3-1.81l-9.63-38.76c-.33-1.33.48-2.67,1.81-3s2.67.48,3,1.81l9.63,38.76ZM314.71,113.92l7.22,39.36c.23,1.28-.56,2.59-1.99,2.88-1.34.25-2.63-.64-2.88-1.99l-7.22-39.36c-.25-1.35.67-2.6,1.99-2.88,1.34-.25,2.63.64,2.88,1.99h0ZM323.72,88.57l-14.42,3.58-.6-2.4c-.99-3.97-5.02-6.4-9-5.42l-19.22,4.77c-3.97.99-6.4,5.02-5.42,9l.6,2.4-14.42,3.58c-2.65.66-4.27,3.34-3.61,6s3.34,4.27,6,3.61l62.47-15.51c2.65-.66,4.27-3.35,3.61-6-.66-2.65-3.34-4.27-6-3.61ZM304.5,93.34l-24.03,5.97-.6-2.4c-.33-1.33.48-2.67,1.81-3l19.22-4.77c1.33-.33,2.67.48,3,1.81l.6,2.4Z" style="fill: #fff; stroke-width: 0px;"/>
  <path d="M362.74,293.63l-4.83,52.89c-.35,3.81,2.33,7.32,6.11,7.99l39.79,6.98c3.77.66,7.49-1.72,8.46-5.43l13.47-51.38-63-11.06ZM373.43,346.11c-1.28-.22-2.18-1.41-2.03-2.71l4.47-39.77c.15-1.36,1.38-2.34,2.73-2.19,1.41.15,2.34,1.37,2.19,2.73l-4.47,39.77c-.16,1.41-1.47,2.41-2.89,2.16h0ZM388.49,346.24c-.24,1.35-1.52,2.25-2.87,2.01s-2.25-1.52-2.01-2.87l6.9-39.34c.24-1.35,1.52-2.25,2.87-2.01s2.25,1.52,2.01,2.87l-6.9,39.34ZM410,309.62l-9.34,38.91c-.3,1.27-1.56,2.15-2.99,1.83-1.33-.32-2.15-1.66-1.83-2.99l9.34-38.91c.32-1.33,1.67-2.1,2.99-1.83,1.33.32,2.15,1.66,1.83,2.99h0ZM428.51,290.09l-14.63-2.57.43-2.44c.71-4.03-2-7.89-6.03-8.6l-19.51-3.42c-4.03-.71-7.89,2-8.6,6.03l-.43,2.44-14.63-2.57c-2.69-.47-5.26,1.33-5.73,4.02s1.33,5.26,4.02,5.73l63.4,11.13c2.69.47,5.26-1.33,5.73-4.02.47-2.69-1.33-5.26-4.02-5.73ZM409,286.67l-24.38-4.28.43-2.44c.24-1.35,1.52-2.25,2.87-2.01l19.51,3.42c1.35.24,2.25,1.52,2.01,2.87l-.43,2.44Z" style="fill: #fff; stroke-width: 0px;"/>
  <path d="M219.9,242.14l17.01,50.32c1.23,3.63,5.1,5.75,8.82,4.83l39.21-9.74c3.72-.92,6.15-4.61,5.54-8.39l-8.5-52.43-62.08,15.42ZM250.94,285.79c-1.26.31-2.56-.4-2.95-1.66l-12.03-38.17c-.41-1.31.31-2.7,1.61-3.11,1.35-.44,2.69.31,3.11,1.61l12.03,38.17c.43,1.35-.37,2.8-1.77,3.15h0ZM264.76,279.8c.33,1.33-.48,2.67-1.81,3s-2.67-.48-3-1.81l-9.63-38.76c-.33-1.33.48-2.67,1.81-3s2.67.48,3,1.81l9.63,38.76ZM269.58,237.61l7.22,39.36c.23,1.28-.56,2.59-1.99,2.88-1.34.25-2.63-.64-2.88-1.99l-7.22-39.36c-.25-1.35.67-2.6,1.99-2.88,1.34-.25,2.63.64,2.88,1.99h0ZM278.59,212.26l-14.42,3.58-.6-2.4c-.99-3.97-5.02-6.4-9-5.42l-19.22,4.77c-3.97.99-6.4,5.02-5.42,9l.6,2.4-14.42,3.58c-2.65.66-4.27,3.34-3.61,6s3.34,4.27,6,3.61l62.47-15.51c2.65-.66,4.27-3.35,3.61-6-.66-2.65-3.34-4.27-6-3.61ZM259.37,217.03l-24.03,5.97-.6-2.4c-.33-1.33.48-2.67,1.81-3l19.22-4.77c1.33-.33,2.67.48,3,1.81l.6,2.4Z" style="fill: #fff; stroke-width: 0px;"/>
  <path d="M178.64,394.02l17.01,50.32c1.23,3.63,5.1,5.75,8.82,4.83l39.21-9.74c3.72-.92,6.15-4.61,5.54-8.39l-8.5-52.43-62.08,15.42ZM209.68,437.66c-1.26.31-2.56-.4-2.95-1.66l-12.03-38.17c-.41-1.31.31-2.7,1.61-3.11,1.35-.44,2.69.31,3.11,1.61l12.03,38.17c.43,1.35-.37,2.8-1.77,3.15h0ZM223.5,431.68c.33,1.33-.48,2.67-1.81,3s-2.67-.48-3-1.81l-9.63-38.76c-.33-1.33.48-2.67,1.81-3s2.67.48,3,1.81l9.63,38.76ZM228.32,389.49l7.22,39.36c.23,1.28-.56,2.59-1.99,2.88-1.34.25-2.63-.64-2.88-1.99l-7.22-39.36c-.25-1.35.67-2.6,1.99-2.88,1.34-.25,2.63.64,2.88,1.99h0ZM237.34,364.14l-14.42,3.58-.6-2.4c-.99-3.97-5.02-6.4-9-5.42l-19.22,4.77c-3.97.99-6.4,5.02-5.42,9l.6,2.4-14.42,3.58c-2.65.66-4.27,3.34-3.61,6s3.34,4.27,6,3.61l62.47-15.51c2.65-.66,4.27-3.35,3.61-6-.66-2.65-3.34-4.27-6-3.61ZM218.12,368.91l-24.03,5.97-.6-2.4c-.33-1.33.48-2.67,1.81-3l19.22-4.77c1.33-.33,2.67.48,3,1.81l.6,2.4Z" style="fill: #fff; stroke-width: 0px;"/>
</svg>