<svg xmlns="http://www.w3.org/2000/svg" version="1.1" xmlns:xlink="http://www.w3.org/1999/xlink" width="512" height="512" x="0" y="0" viewBox="0 0 511.999 511" style="enable-background:new 0 0 512 512" xml:space="preserve" class=""><g><path d="M470.91 132.184c-4.906 4.906-10.008 8.89-15.383 12.054l-87.273-87.277c3.164-5.371 7.144-10.473 12.055-15.383 9.382-9.383 9.382-24.652-.004-34.039-9.383-9.383-24.653-9.387-34.04 0-39.062 39.063-39.632 86.281-32.796 128.914-49.63-10.23-104.492-14.582-148.29 29.211-19.796 19.8-31.179 43.055-34.796 71.098a7.512 7.512 0 0 0 6.488 8.41c4.102.531 7.879-2.375 8.406-6.488 3.18-24.625 13.16-45.036 30.524-62.399 40.351-40.351 91.328-34.543 140.558-23.867 1.47 7.355 2.77 13.125 4.204 19.465-48.915-11.125-96.29-18.988-132.016 17.254-79.86 79.972 55.84 216.406-33.43 305.675-3.527 3.528-9.27 3.528-12.797 0-3.53-3.527-3.53-9.269 0-12.796 56.606-56.61 6.028-137.93 2.063-215.786-.215-4.14-3.711-7.335-7.883-7.117a7.512 7.512 0 0 0-7.121 7.883c.824 16.149 3.566 32.332 6.586 46.957-42.633-6.832-89.848-6.262-128.91 32.797-9.407 9.402-9.41 24.633 0 34.04 9.406 9.41 24.633 9.41 34.043 0 4.906-4.907 10.007-8.888 15.379-12.052l87.277 87.274c-3.168 5.375-7.149 10.476-12.055 15.383-9.387 9.382-9.387 24.656 0 34.039 9.383 9.386 24.653 9.386 34.04 0 39.062-39.063 39.632-86.282 32.796-128.914 56.649 11.675 107.27 11.808 148.29-29.211 43.796-43.797 39.437-98.668 29.206-148.297 14.25 2.265 28.563 3.636 42.973 3.183a7.517 7.517 0 0 0 7.27-7.746c-.133-4.144-3.594-7.414-7.743-7.27-13.46.423-28.16-.84-45.949-3.976-1.445-6.34-2.852-12.312-4.434-19.18 41.66 8.387 81.313 10.852 113.383-21.218 3.528-3.528 9.266-3.528 12.797 0a9.04 9.04 0 0 1 0 12.797c-14.05 14.054-29.922 23.18-48.515 27.894a7.51 7.51 0 0 0 3.691 14.559c21.289-5.399 39.426-15.809 55.445-31.832 4.547-4.547 7.051-10.59 7.051-17.02 0-21.379-26.016-32.094-41.09-17.02zM30.477 370.168a9.044 9.044 0 0 1-12.801 0 9.043 9.043 0 0 1 0-12.797c24.324-24.324 52.84-31.64 81.199-31.64 13.715 0 27.398 1.71 40.55 4.039 1.434 6.304 2.895 12.503 4.434 19.183-41.66-8.39-81.312-10.855-113.382 21.215zm40.753-7.922c20.38-6.262 44.754-3.867 76.215 2.797 6.668 31.46 9.063 55.836 2.797 76.215zm116.45-37.434c-5.727-24.73-10.793-47.792-10.57-68.66l79.226 79.227c-20.867.223-43.93-4.84-68.656-10.567zm87.922 8.594-96.52-96.52c2.387-11.39 7.102-21.968 15.078-31.624l113.063 113.066c-9.653 7.98-20.227 12.692-31.621 15.078zm42.246-25.695L204.78 194.645c9.653-7.977 20.23-12.692 31.621-15.079l96.52 96.52c-2.387 11.39-7.098 21.969-15.074 31.625zm6.48-119.55c5.727 24.73 10.79 47.792 10.57 68.66l-79.226-79.227c20.863-.223 43.93 4.84 68.656 10.566zm11.875 148.526c-40.351 40.352-91.324 34.543-140.558 23.868-1.06-5.282-2.211-10.723-4.204-19.465 49.543 11.27 95.942 18.82 131.965-17.203 79.328-79.325-55.277-216.969 33.485-305.727 3.527-3.527 9.265-3.531 12.796 0 3.528 3.527 3.528 9.27 0 12.797-79.78 79.781 55.758 216.492-33.484 305.73zm28.36-188.757c-6.668-31.461-9.063-55.836-2.797-76.215l79.011 79.012c-20.379 6.265-44.754 3.87-76.215-2.797zm0 0" fill="#ffffff" opacity="1" data-original="#000000" class=""></path></g></svg>