<svg xmlns="http://www.w3.org/2000/svg" xmlns:xlink="http://www.w3.org/1999/xlink" version="1.1" id="Layer_1" x="0px" y="0px" enable-background="new 0 0 1000 1000" xml:space="preserve" viewBox="250.65 304.63 510.27 362.39"><path fill="#FFFFFF" opacity="1.000000" stroke="none" d=" M735.365845,332.174774   C738.450806,325.710297 737.325256,318.875000 738.959167,312.515778   C740.401245,306.902893 744.410889,304.465363 751.451660,305.009064   C756.009033,305.360992 760.931641,309.808929 760.921082,314.316223   C760.883972,330.167084 756.760132,344.756805 747.624329,357.969482   C736.032532,374.734161 719.747620,385.775146 702.754456,396.087952   C700.560303,397.419556 698.557190,399.065887 696.396179,400.616211   C699.367188,404.698242 704.382874,405.573853 708.389038,407.991272   C715.486389,412.273987 722.153564,417.126953 728.100525,422.792511   C732.850403,427.317596 738.792908,430.307983 742.708069,435.997803   C751.252563,448.415375 758.407593,461.009186 760.233643,476.535309   C762.125427,492.619171 759.277771,507.510193 751.689453,521.316467   C745.394287,532.770081 736.635376,542.325012 725.888794,550.255249   C717.786987,556.233826 709.546448,561.873535 700.975891,567.111877   C698.099365,568.869995 696.960815,570.903870 700.824707,573.446716   C707.136658,577.600647 714.070801,580.832764 719.747437,585.933289   C727.922302,593.278503 738.148376,598.377197 744.334961,607.883850   C751.959229,619.599854 759.178772,631.464966 760.118347,646.056458   C760.435791,650.985413 761.754333,655.813293 759.701477,660.644470   C757.880798,664.929016 753.457092,667.510376 747.884888,666.938904   C743.215881,666.459961 740.396484,663.744324 738.916199,659.103455   C737.094543,653.392334 738.798584,647.359253 736.186096,641.606140   C732.579224,633.663391 728.524719,626.479675 722.761475,619.630981   C715.392639,610.874451 706.178528,604.882568 697.405518,598.217102   C691.857239,594.001648 684.596313,592.032776 679.074829,587.791687   C673.162842,583.250671 668.756226,584.571350 663.345764,588.163452   C653.114380,594.956238 641.430847,599.559204 632.293152,607.985657   C624.830200,614.867798 616.756348,621.224060 611.404541,630.152039   C606.662842,638.062256 605.817566,646.934875 605.088867,655.756226   C604.524841,662.583313 600.954224,666.844299 594.557129,666.997742   C587.085327,667.177002 582.212158,663.099121 582.038940,656.090393   C581.597778,638.241699 587.272522,622.493347 598.698669,608.787048   C601.545288,605.372498 603.908447,601.446716 607.176575,598.517639   C611.902771,594.281738 617.277405,590.774231 622.327881,586.894165   C629.117737,581.677734 635.975098,576.585693 643.637695,572.662292   C646.046997,571.428650 646.065491,569.550049 643.642700,568.343201   C633.348816,563.215698 625.008789,555.197510 615.170349,549.338806   C608.218750,545.199280 603.663086,538.124756 598.511353,531.926636   C592.037048,524.137268 587.567444,515.334045 584.737122,505.556427   C580.113953,489.585144 580.868591,473.816895 586.933105,458.581940   C593.943909,440.969635 606.652222,427.766022 622.009460,417.018616   C628.846069,412.234161 635.001648,406.368622 643.262146,403.780548   C644.572693,403.369965 646.698853,402.481018 646.662842,400.688995   C646.629883,399.050018 644.505920,398.859009 643.284180,398.099030   C630.913940,390.403595 617.943787,383.170685 607.790710,372.816498   C595.365295,360.144928 584.927734,345.718018 582.842285,326.983032   C582.457947,323.530121 582.017517,320.109253 582.006104,316.639832   C581.989075,311.465302 585.295105,306.509857 589.586365,305.208252   C594.825684,303.619080 601.096069,305.400146 603.938965,309.525146   C606.328552,312.992462 605.515442,317.342529 605.699524,321.037018   C606.432190,335.741272 614.235352,346.190430 624.220093,355.743988   C633.761597,364.873444 644.750061,372.052002 655.793518,379.101105   C660.438354,382.065918 665.809448,383.874664 670.764954,386.378052   C673.687012,387.854187 674.276184,384.645538 676.148499,383.958374   C692.573486,377.930603 705.943848,366.907776 719.073181,355.955902   C726.292847,349.933594 731.692017,341.629669 735.365845,332.174774  z"></path><path fill="#FFFFFF" opacity="1.000000" stroke="none" d=" M419.588013,305.002441   C426.466492,307.710724 427.722321,309.856232 428.060669,316.153473   C428.628815,326.728394 425.477081,336.419891 422.036896,346.181458   C417.571350,358.852509 408.127289,367.372894 398.688507,376.137726   C388.812866,385.308289 377.104126,391.702148 365.951355,398.945526   C362.951324,400.893951 364.144684,401.683167 366.336182,402.727234   C382.774231,410.558472 396.530579,422.086975 409.176270,434.862152   C419.410278,445.201019 424.511810,458.278381 427.093231,472.573181   C430.155701,489.531708 427.150421,505.709259 420.237823,520.874146   C415.765137,530.686340 407.870941,538.721802 399.510498,545.709961   C388.502960,554.910767 376.524414,562.821716 364.255463,570.295654   C379.771606,580.396912 395.283875,590.297974 408.239777,603.663452   C418.576965,614.327515 423.957977,627.264160 427.057587,641.481140   C428.059143,646.074951 427.993317,650.649170 427.994568,655.259888   C427.996521,662.428345 423.708069,666.995972 417.016357,666.999939   C410.307220,667.003967 406.015656,662.448364 406.001251,655.292419   C405.980865,645.168701 402.026062,636.320740 397.225159,627.699524   C391.636871,617.664429 382.071167,611.694641 373.842560,604.328918   C367.126648,598.317322 358.433075,595.710571 351.188538,590.648499   C350.390869,590.091125 349.363525,589.800110 348.692352,589.134033   C343.480682,583.961487 337.943359,583.063110 331.854156,587.597961   C325.350861,592.441162 317.907349,595.661865 310.957001,599.722046   C304.228363,603.652771 298.709381,609.302612 292.978912,614.568237   C289.623840,617.651123 285.785736,620.537476 283.417938,624.300659   C277.629517,633.500366 272.841400,643.222473 272.973175,654.588623   C273.067749,662.744446 268.160919,667.334839 260.029358,666.999573   C255.383850,666.807922 251.197968,662.563721 250.996857,657.884277   C250.584503,648.289795 252.161438,639.098755 254.779266,629.790710   C259.294739,613.735229 270.604919,603.242859 282.410187,592.946899   C291.404327,585.102722 301.397491,578.607239 311.462860,572.253113   C314.525360,570.319824 313.026764,569.101074 311.083588,568.047791   C300.891632,562.523499 291.797729,555.328796 282.438171,548.624512   C275.297638,543.509705 269.335632,536.659851 264.205597,529.438538   C249.172379,508.276947 247.725983,485.127716 254.583466,460.759583   C258.359375,447.341797 266.989471,437.814880 276.672913,428.202118   C284.923157,420.012085 294.934143,414.598694 303.491241,407.109039   C306.756714,404.250946 311.616791,404.097473 315.481171,400.716156   C305.113129,395.607758 296.874207,387.914368 287.084259,382.448792   C278.921722,377.891754 273.665131,369.966644 267.230469,363.447418   C257.968628,354.063904 254.303024,341.950897 251.673035,329.383331   C250.425201,323.420502 250.836441,317.449310 251.182129,311.559509   C251.517014,305.853882 262.728699,302.579224 267.882446,306.491150   C271.094330,308.929138 273.373657,311.924866 273.079956,316.541595   C272.556305,324.772552 276.398315,331.803802 279.377411,339.239044   C283.956238,350.666809 293.573029,356.685791 302.158386,364.172577   C312.326385,373.039581 324.376678,378.593872 335.753937,385.365295   C338.244019,386.847351 339.896973,386.834991 342.742249,385.252258   C351.528839,380.364624 360.900726,376.408173 368.701324,369.968262   C376.839600,363.249542 386.731445,358.519043 392.894196,349.544922   C400.225006,338.869781 406.601105,327.827576 406.078766,314.108398   C405.848541,308.060730 410.630188,305.004211 419.588013,305.002441  z"></path><path fill="#FFFFFF" opacity="1.000000" stroke="none" d=" M481.406342,591.042236   C473.742615,598.812256 467.384399,597.905945 460.714691,589.619385   C455.460785,583.091797 450.308014,576.404724 444.166473,570.590942   C440.290802,566.922180 440.117737,556.913330 443.568848,552.929565   C450.136414,545.348267 456.712830,537.774597 463.302307,530.212341   C466.987396,525.983276 474.518951,525.562561 478.817932,529.313660   C483.763000,533.628540 484.502625,541.260254 480.465179,546.061218   C479.644928,547.036621 477.810364,547.758484 478.320526,549.114807   C478.967102,550.833740 480.927856,549.954163 482.278442,549.959656   C497.927246,550.022522 513.576416,550.020020 529.225220,549.958618   C530.406067,549.953979 532.134583,550.792480 532.712830,549.125061   C533.147034,547.873108 531.565918,547.287537 530.904602,546.390991   C526.815002,540.846252 527.459534,533.356323 532.396912,529.122253   C536.833740,525.317444 544.157654,525.955750 548.624023,531.298645   C552.673523,536.142883 557.380737,540.481812 560.286987,546.331787   C561.594910,548.964417 564.853516,550.182007 566.669678,552.918701   C571.337341,559.952271 571.377563,566.645935 565.128296,572.168152   C559.542053,577.104553 556.339050,583.885864 551.026428,588.960938   C550.205383,589.745239 549.646423,590.798157 548.857117,591.622253   C543.761841,596.942139 536.610657,597.927734 532.217468,593.647888   C527.510193,589.061890 526.274170,582.565247 531.452393,576.042847   C532.024170,575.322632 533.172852,574.849121 532.580505,573.291382   C514.623657,573.291382 496.568817,573.291382 477.627167,573.291382   C482.024170,578.620178 484.888458,584.142700 481.406342,591.042236  z"></path><path fill="#FFFFFF" opacity="1.000000" stroke="none" d=" M533.152710,421.268860   C514.743652,421.041718 496.602539,421.041718 478.327240,421.041718   C478.026581,423.508942 479.919067,424.737854 480.882568,426.272156   C484.470490,431.985474 483.389099,438.851776 478.089172,442.359467   C473.119812,445.648376 466.536896,444.142212 462.613098,439.281891   C457.178680,432.550354 451.142120,426.292969 445.190521,420.057770   C440.092834,414.717224 440.334045,404.547180 444.600677,400.010590   C451.111420,393.087860 456.421234,385.116180 463.627136,378.792175   C468.772980,374.276123 474.807709,373.773193 479.487549,378.010376   C484.006989,382.102234 484.234253,389.200165 480.050049,394.432678   C478.956635,395.800049 477.191956,396.631836 476.575317,398.741882   C495.926788,398.741882 515.088318,398.741882 534.877869,398.741882   C532.466675,395.648743 529.919556,393.365265 528.884521,389.971771   C527.229065,384.543701 528.659363,380.133881 533.535339,376.987152   C537.988770,374.113159 542.646484,375.064514 546.935669,378.262146   C555.709534,384.803131 560.204407,394.852966 567.651794,402.470215   C571.605164,406.513672 570.846619,411.644745 567.908569,416.074799   C564.771790,420.804443 561.144531,425.208771 557.418213,429.902954   C556.609192,430.418243 555.967651,430.306091 555.272278,430.802795   C553.181824,435.502319 549.673950,439.037689 546.113708,441.716278   C538.702576,447.291992 531.825195,443.991577 528.128296,433.597290   C529.095947,431.658539 530.317871,430.249207 530.161255,427.947144   C530.102844,427.419830 530.080139,427.229462 530.126465,426.759888   C533.883789,425.303864 533.883789,425.303864 533.152710,421.268860  z"></path><path fill="#FFFFFF" opacity="1.000000" stroke="none" d=" M369.929565,332.000000   C347.794525,331.999969 326.148926,331.994537 304.503357,332.005768   C301.210632,332.007477 297.881073,331.748962 295.246216,329.686615   C289.917633,325.515900 288.936981,321.075623 291.217651,314.969025   C293.004913,310.183441 297.811615,309.019623 302.623108,309.013428   C325.600677,308.983948 348.578339,308.987274 371.555908,309.015869   C374.493103,309.019501 377.411957,309.450378 380.321259,309.758148   C385.041901,310.257477 387.203674,312.771179 387.912933,316.736328   C389.163940,323.730225 387.224121,327.560486 382.415924,330.202820   C378.554688,332.324738 374.497314,331.959717 369.929565,332.000000  z"></path><path fill="#FFFFFF" opacity="1.000000" stroke="none" d=" M683.000000,640.000000   C692.315002,640.001282 701.139160,639.763306 709.941345,640.099670   C714.701477,640.281555 719.130371,642.267334 720.588562,647.319214   C721.958862,652.066284 720.684814,656.408386 716.734314,659.798706   C714.552246,661.671387 712.111877,662.033569 709.374451,662.028320   C684.093811,661.980042 658.812988,662.003113 633.532227,661.997864   C626.831299,661.996460 623.057678,657.985596 623.000793,650.839355   C622.947144,644.093262 626.776184,640.057312 633.601807,640.025818   C649.900879,639.950562 666.200562,640.000610 683.000000,640.000000  z"></path><path fill="#FFFFFF" opacity="1.000000" stroke="none" d=" M714.724609,336.544312   C712.099976,344.249268 709.702820,345.992249 701.924805,345.996277   C681.291565,346.006897 660.658386,346.006165 640.025146,345.996460   C632.846191,345.993073 628.137573,341.684082 627.996582,335.139557   C627.866516,329.102234 633.526367,323.651611 640.250244,323.816284   C660.871094,324.321320 681.518188,324.285400 702.142334,323.851318   C709.766052,323.690857 714.290588,327.804077 714.724609,336.544312  z"></path><path fill="#FFFFFF" opacity="1.000000" stroke="none" d=" M344.000000,647.000000   C331.689819,647.000000 319.878052,646.888977 308.070190,647.054077   C303.273376,647.121033 299.399384,645.532715 297.263092,641.359436   C295.254852,637.436279 297.952209,627.638000 301.357361,625.484680   C302.455994,624.789978 304.210175,625.018616 305.664703,625.016968   C327.288971,624.992310 348.913269,624.998901 370.537567,625.000671   C378.032593,625.001221 381.655670,628.656250 382.071686,635.775757   C382.455109,642.338196 380.058441,646.274353 370.939911,646.874390   C362.161896,647.452087 353.316040,646.999756 344.000000,647.000000  z"></path><path fill="#FFFFFF" opacity="1.000000" stroke="none" d=" M687.523804,604.253540   C691.715332,608.068054 693.018311,612.644226 691.642334,617.555664   C690.191528,622.734375 685.412170,624.531616 680.826721,624.754272   C673.773254,625.096802 666.624573,625.882874 659.577393,624.066284   C652.999756,622.370667 651.399536,620.515686 650.929321,615.180725   C650.273804,607.744263 654.261475,602.909485 659.263977,602.545288   C668.556763,601.868713 678.068176,600.272217 687.523804,604.253540  z"></path><path fill="#FFFFFF" opacity="1.000000" stroke="none" d=" M323.447205,348.228210   C325.797028,346.507751 327.951385,345.842285 330.568665,345.935608   C336.371521,346.142548 342.187866,345.933136 347.996704,346.022217   C352.512512,346.091431 356.481201,347.996246 358.265961,352.042755   C359.910492,355.771271 359.938477,360.199829 357.519623,363.826752   C355.779602,366.435730 353.225677,368.173889 349.636505,368.054016   C343.666931,367.854645 337.665955,367.698151 331.715607,368.090698   C326.479156,368.436096 322.453278,366.594391 320.218658,362.182343   C317.671661,357.153564 319.333923,352.425781 323.447205,348.228210  z"></path><path fill="#FFFFFF" opacity="1.000000" stroke="none" d=" M532.930298,421.404510   C535.989441,424.338654 535.582336,425.581055 530.616699,426.579102   C531.138550,424.919189 533.385681,424.126923 532.930298,421.404510  z"></path><path fill="#FFFFFF" opacity="1.000000" stroke="none" d=" M529.868164,427.789368   C532.619141,430.053131 530.745239,431.458618 528.522034,433.027283   C527.525696,431.138367 528.677979,429.583801 529.868164,427.789368  z"></path><path fill="#FFFFFF" opacity="1.000000" stroke="none" d=" M555.412109,431.021667   C555.019470,430.628510 554.930908,430.208923 554.842285,429.789307   C555.435059,429.808533 556.027771,429.827759 556.862793,429.948853   C556.642090,430.365570 556.179138,430.680359 555.412109,431.021667  z"></path><path fill="#000000" opacity="1.000000" stroke="none" d=" M669.284668,555.684082   C656.049377,548.666077 642.711548,542.335205 631.940674,532.292114   C624.445251,525.303284 615.807922,519.262390 610.981262,509.625580   C608.742920,505.156464 607.191772,500.621124 606.375671,495.753815   C604.039978,481.823456 604.941406,468.183289 613.964600,456.847229   C622.262878,446.422028 631.402222,436.672211 643.765015,430.391724   C651.179260,426.625214 657.899963,421.453156 665.101135,417.156189   C669.477051,414.545074 672.474487,413.745819 677.357849,416.838379   C687.037842,422.968475 697.358521,428.179688 706.587219,434.985443   C720.900085,445.540527 733.208374,457.815796 737.148987,476.206116   C740.300110,490.911560 736.388611,503.905090 727.726440,515.745361   C718.077148,528.934692 704.782166,538.040100 691.284180,546.546509   C685.594849,550.131958 678.960449,552.514160 673.232544,556.310791   C671.632751,557.371216 670.795227,556.003601 669.284668,555.684082  z"></path><path fill="#000000" opacity="1.000000" stroke="none" d=" M398.739807,460.352478   C402.974762,468.569794 406.059052,476.710297 406.023438,485.782654   C405.986389,495.221802 402.290894,503.360718 398.092865,511.595642   C392.505707,522.555603 382.344879,528.481445 373.733734,536.275024   C364.342194,544.774902 352.081787,548.179688 342.358521,555.853271   C340.730194,557.138367 338.886261,557.322266 336.949921,556.012268   C327.037872,549.306152 315.328033,545.482483 306.228027,537.575806   C298.787109,531.110657 289.938934,526.090332 284.278534,517.730713   C272.562775,500.428131 268.999512,482.458099 278.550934,462.597321   C283.962250,451.345245 293.597687,444.557892 302.096191,436.462067   C308.943573,429.939178 318.036407,426.917023 325.784027,421.763214   C328.336853,420.065002 331.146667,418.453735 333.434387,416.617737   C338.487183,412.562775 342.695618,414.656677 346.668640,417.400177   C354.292633,422.664917 362.811493,426.537140 370.231781,431.931885   C381.025513,439.779266 392.106934,447.654907 398.739807,460.352478  z"></path><path fill="#FFFFFF" opacity="1.000000" stroke="none" d=" M711.941650,508.408508   C711.945190,517.638184 707.692078,521.988464 699.024597,521.995422   C680.549622,522.010193 662.074646,522.024841 643.599731,521.990234   C632.849060,521.970154 627.673218,512.981323 632.747864,503.519348   C634.104431,500.990051 635.738159,499.947906 638.594788,499.958435   C660.231812,500.038208 681.869812,500.084534 703.506226,499.946777   C709.229431,499.910339 710.374878,504.000488 711.941650,508.408508  z"></path><path fill="#FFFFFF" opacity="1.000000" stroke="none" d=" M666.000000,472.000000   C657.676086,471.999756 649.851990,472.038300 642.028381,471.987427   C635.276611,471.943542 631.027649,467.537811 631.000610,460.682312   C630.973450,453.794769 634.632629,450.044678 641.742981,450.022644   C661.552246,449.961273 681.361877,449.966034 701.171143,450.019958   C708.183960,450.039062 712.062622,453.952606 711.996521,460.646332   C711.930603,467.324829 707.479187,471.960846 700.958374,471.986664   C689.472412,472.032104 677.986145,471.999756 666.000000,472.000000  z"></path><path fill="#FFFFFF" opacity="1.000000" stroke="none" d=" M299.699615,512.323181   C298.596619,504.206116 302.153839,500.000122 309.610077,500.000061   C329.412781,499.999908 349.215912,500.069458 369.017792,499.942688   C373.089905,499.916626 376.782135,500.095001 378.165894,504.687805   C379.513702,509.161530 380.077301,513.684143 376.784485,517.697754   C374.366058,520.645508 371.456299,522.124084 367.381500,522.083252   C348.579163,521.894531 329.772461,522.130005 310.970306,521.932312   C303.998260,521.859009 301.488464,520.546082 299.699615,512.323181  z"></path><path fill="#FFFFFF" opacity="1.000000" stroke="none" d=" M319.011292,472.000000   C316.184692,472.000000 313.855560,472.000092 311.526459,471.999969   C301.486053,471.999512 296.498138,464.362305 300.520416,455.000183   C302.044739,451.452087 305.284058,450.076355 308.806824,450.056763   C329.269104,449.943024 349.740173,449.684662 370.190735,450.187042   C376.632507,450.345337 379.562469,453.902832 379.037842,462.465881   C378.717194,467.699554 374.683624,471.972107 369.418335,471.984924   C352.781891,472.025391 336.145325,471.999939 319.011292,472.000000  z"></path></svg>