<?xml version="1.0" encoding="UTF-8"?>
<svg id="Layer_1" data-name="Layer 1" xmlns="http://www.w3.org/2000/svg" version="1.1" viewBox="0 0 1080 1000">
  <defs>
    <style>
      .cls-1 {
        fill: #fff;
        stroke-width: 0px;
      }
    </style>
  </defs>
  <path class="cls-1" d="M521.4,591c-7.7,7.8-14,6.9-20.7-1.4-5.3-6.5-10.4-13.2-16.5-19-3.9-3.7-4-13.7-.6-17.7,6.6-7.6,13.1-15.2,19.7-22.7,3.7-4.2,11.2-4.6,15.5-.9,4.9,4.3,5.7,11.9,1.6,16.7-.8,1-2.7,1.7-2.1,3.1.6,1.7,2.6.8,4,.8,15.6,0,31.3,0,46.9,0,1.2,0,2.9.8,3.5-.8.4-1.3-1.1-1.8-1.8-2.7-4.1-5.5-3.4-13,1.5-17.3,4.4-3.8,11.8-3.2,16.2,2.2,4,4.8,8.8,9.2,11.7,15,1.3,2.6,4.6,3.9,6.4,6.6,4.7,7,4.7,13.7-1.5,19.2-5.6,4.9-8.8,11.7-14.1,16.8-.8.8-1.4,1.8-2.2,2.7-5.1,5.3-12.2,6.3-16.6,2-4.7-4.6-5.9-11.1-.8-17.6.6-.7,1.7-1.2,1.1-2.8h-55c4.4,5.3,7.3,10.9,3.8,17.8Z"/>
  <path class="cls-1" d="M573.2,421.3c-18.4-.2-36.6-.2-54.8-.2-.3,2.5,1.6,3.7,2.6,5.2,3.6,5.7,2.5,12.6-2.8,16.1-5,3.3-11.6,1.8-15.5-3.1-5.4-6.7-11.5-13-17.4-19.2-5.1-5.3-4.9-15.5-.6-20,6.5-6.9,11.8-14.9,19-21.2,5.1-4.5,11.2-5,15.9-.8,4.5,4.1,4.7,11.2.6,16.4-1.1,1.4-2.9,2.2-3.5,4.3h58.3c-2.4-3.1-5-5.4-6-8.8-1.7-5.4-.2-9.8,4.7-13,4.5-2.9,9.1-1.9,13.4,1.3,8.8,6.5,13.3,16.6,20.7,24.2,4,4,3.2,9.2.3,13.6-3.1,4.7-6.8,9.1-10.5,13.8-.8.5-1.5.4-2.1.9-2.1,4.7-5.6,8.2-9.2,10.9-7.4,5.6-14.3,2.3-18-8.1,1-1.9,2.2-3.3,2-5.7,0-.5,0-.7,0-1.2q3.8-1.5,3-5.5Z"/>
  <path class="cls-1" d="M409.9,332c-22.1,0-43.8,0-65.4,0-3.3,0-6.6-.3-9.3-2.3-5.3-4.2-6.3-8.6-4-14.7,1.8-4.8,6.6-5.9,11.4-6,23,0,46,0,68.9,0,2.9,0,5.9.4,8.8.7,4.7.5,6.9,3,7.6,7,1.3,7-.7,10.8-5.5,13.5-3.9,2.1-7.9,1.8-12.5,1.8Z"/>
  <path class="cls-1" d="M723,640c9.3,0,18.1-.2,26.9,0,4.8.2,9.2,2.2,10.6,7.2,1.4,4.7,0,9.1-3.9,12.5-2.2,1.9-4.6,2.2-7.4,2.2-25.3,0-50.6,0-75.8,0-6.7,0-10.5-4-10.5-11.2,0-6.7,3.8-10.8,10.6-10.8,16.3,0,32.6,0,49.4,0Z"/>
  <path class="cls-1" d="M754.7,336.5c-2.6,7.7-5,9.4-12.8,9.5-20.6,0-41.3,0-61.9,0-7.2,0-11.9-4.3-12-10.9-.1-6,5.5-11.5,12.3-11.3,20.6.5,41.3.5,61.9,0,7.6-.2,12.1,4,12.6,12.7Z"/>
  <path class="cls-1" d="M384,647c-12.3,0-24.1-.1-35.9,0-4.8,0-8.7-1.5-10.8-5.7-2-3.9.7-13.7,4.1-15.9,1.1-.7,2.9-.5,4.3-.5,21.6,0,43.2,0,64.9,0,7.5,0,11.1,3.7,11.5,10.8.4,6.6-2,10.5-11.1,11.1-8.8.6-17.6.1-26.9.1Z"/>
  <path class="cls-1" d="M727.5,604.3c4.2,3.8,5.5,8.4,4.1,13.3-1.5,5.2-6.2,7-10.8,7.2-7.1.3-14.2,1.1-21.2-.7-6.6-1.7-8.2-3.6-8.6-8.9-.7-7.4,3.3-12.3,8.3-12.6,9.3-.7,18.8-2.3,28.3,1.7Z"/>
  <path class="cls-1" d="M363.4,348.2c2.3-1.7,4.5-2.4,7.1-2.3,5.8.2,11.6,0,17.4,0,4.5,0,8.5,2,10.3,6,1.6,3.7,1.7,8.2-.7,11.8-1.7,2.6-4.3,4.3-7.9,4.2-6-.2-12-.4-17.9,0-5.2.3-9.3-1.5-11.5-5.9-2.5-5-.9-9.8,3.2-14Z"/>
  <path class="cls-1" d="M572.9,421.4c3.1,2.9,2.7,4.2-2.3,5.2.5-1.7,2.8-2.5,2.3-5.2Z"/>
  <path class="cls-1" d="M569.9,427.8c2.8,2.3.9,3.7-1.3,5.2-1-1.9.2-3.4,1.3-5.2Z"/>
  <path class="cls-1" d="M595.4,431c-.4-.4-.5-.8-.6-1.2.6,0,1.2,0,2,.2-.2.4-.7.7-1.5,1.1Z"/>
  <path class="cls-1" d="M784.3,608c-6.2-9.5-16.4-14.6-24.6-22-5.7-5.1-12.6-8.3-18.9-12.5-3.9-2.5-2.7-4.6.2-6.3,8.6-5.2,16.8-10.9,24.9-16.9,10.7-7.9,19.5-17.5,25.8-28.9,7.6-13.8,10.4-28.7,8.5-44.8-1.8-15.5-9-28.1-17.5-40.5-3.9-5.7-9.9-8.7-14.6-13.2-5.9-5.7-12.6-10.5-19.7-14.8-4-2.4-9-3.3-12-7.4,2.2-1.6,4.2-3.2,6.4-4.5,17-10.3,33.3-21.4,44.9-38.1,9.1-13.2,13.3-27.8,13.3-43.7,0-4.5-4.9-9-9.5-9.3-7-.5-11.1,1.9-12.5,7.5-1.6,6.4-.5,13.2-3.6,19.7-3.7,9.5-9.1,17.8-16.3,23.8-13.1,11-26.5,22-42.9,28-1.9.7-2.5,3.9-5.4,2.4-5-2.5-10.3-4.3-15-7.3-11-7-22-14.2-31.6-23.4-10-9.6-17.8-20-18.5-34.7-.2-3.7.6-8-1.8-11.5-2.8-4.1-9.1-5.9-14.4-4.3-4.3,1.3-7.6,6.3-7.6,11.4,0,3.5.5,6.9.8,10.3,2.1,18.7,12.5,33.2,24.9,45.8,10.2,10.4,23.1,17.6,35.5,25.3,1.2.8,3.3,1,3.4,2.6,0,1.8-2.1,2.7-3.4,3.1-8.3,2.6-14.4,8.5-21.3,13.2-15.4,10.7-28.1,24-35.1,41.6-6.1,15.2-6.8,31-2.2,47,2.8,9.8,7.3,18.6,13.8,26.4,5.2,6.2,9.7,13.3,16.7,17.4,9.8,5.9,18.2,13.9,28.5,19,2.4,1.2,2.4,3.1,0,4.3-7.7,3.9-14.5,9-21.3,14.2-5.1,3.9-10.4,7.4-15.2,11.6-3.3,2.9-5.6,6.9-8.5,10.3-11.4,13.7-17.1,29.5-16.7,47.3.2,7,5,11.1,12.5,10.9,6.4-.2,10-4.4,10.5-11.2.7-8.8,1.6-17.7,6.3-25.6,5.4-8.9,13.4-15.3,20.9-22.2,9.1-8.4,20.8-13,31.1-19.8,5.4-3.6,9.8-4.9,15.7-.4,5.5,4.2,12.8,6.2,18.3,10.4,8.8,6.7,18,12.7,25.4,21.4,5.8,6.8,9.8,14,13.4,22,2.6,5.8.9,11.8,2.7,17.5,1.5,4.6,4.3,7.4,9,7.8,5.6.6,10-2,11.8-6.3,2.1-4.8.7-9.7.4-14.6-.9-14.6-8.2-26.5-15.8-38.2ZM731.3,546.5c-5.7,3.6-12.3,6-18.1,9.8-1.6,1.1-2.4-.3-3.9-.6-13.2-7-26.6-13.3-37.3-23.4-7.5-7-16.1-13-21-22.7-2.2-4.5-3.8-9-4.6-13.9-2.3-13.9-1.4-27.6,7.6-38.9,8.3-10.4,17.4-20.2,29.8-26.5,7.4-3.8,14.1-8.9,21.3-13.2,4.4-2.6,7.4-3.4,12.3-.3,9.7,6.1,20,11.3,29.2,18.1,14.3,10.6,26.6,22.8,30.6,41.2,3.2,14.7-.8,27.7-9.4,39.5-9.6,13.2-22.9,22.3-36.4,30.8Z"/>
  <path class="cls-1" d="M448.2,603.7c-13-13.4-28.5-23.3-44-33.4,12.3-7.5,24.2-15.4,35.3-24.6,8.4-7,16.3-15,20.7-24.8,6.9-15.2,9.9-31.3,6.9-48.3-2.6-14.3-7.7-27.4-17.9-37.7-12.6-12.8-26.4-24.3-42.8-32.1-2.2-1-3.4-1.8-.4-3.8,11.2-7.2,22.9-13.6,32.7-22.8,9.4-8.8,18.9-17.3,23.3-30,3.4-9.8,6.6-19.5,6-30-.3-6.3-1.6-8.4-8.5-11.2-9,0-13.7,3.1-13.5,9.1.5,13.7-5.9,24.8-13.2,35.4-6.2,9-16.1,13.7-24.2,20.4-7.8,6.4-17.2,10.4-26,15.3-2.8,1.6-4.5,1.6-7,.1-11.4-6.8-23.4-12.3-33.6-21.2-8.6-7.5-18.2-13.5-22.8-24.9-3-7.4-6.8-14.5-6.3-22.7.3-4.6-2-7.6-5.2-10.1-5.2-3.9-16.4-.6-16.7,5.1-.3,5.9-.8,11.9.5,17.8,2.6,12.6,6.3,24.7,15.6,34.1,6.4,6.5,11.7,14.4,19.9,19,9.8,5.5,18,13.2,28.4,18.3-3.9,3.4-8.7,3.5-12,6.4-8.6,7.5-18.6,12.9-26.8,21.1-9.7,9.6-18.3,19.1-22.1,32.6-6.9,24.4-5.4,47.5,9.6,68.7,5.1,7.2,11.1,14.1,18.2,19.2,9.4,6.7,18.5,13.9,28.6,19.4,1.9,1.1,3.4,2.3.4,4.2-10.1,6.4-20.1,12.8-29.1,20.7-11.8,10.3-23.1,20.8-27.6,36.8-2.6,9.3-4.2,18.5-3.8,28.1.2,4.7,4.4,8.9,9,9.1,8.1.3,13-4.3,12.9-12.4-.1-11.4,4.7-21.1,10.4-30.3,2.4-3.8,6.2-6.6,9.6-9.7,5.7-5.3,11.2-10.9,18-14.8,7-4.1,14.4-7.3,20.9-12.1,6.1-4.5,11.6-3.6,16.8,1.5.7.7,1.7,1,2.5,1.5,7.2,5.1,15.9,7.7,22.7,13.7,8.2,7.4,17.8,13.3,23.4,23.4,4.8,8.6,8.8,17.5,8.8,27.6,0,7.2,4.3,11.7,11,11.7,6.7,0,11-4.6,11-11.7,0-4.6,0-9.2-.9-13.8-3.1-14.2-8.5-27.2-18.8-37.8ZM382.4,555.9c-1.6,1.3-3.5,1.5-5.4.2-9.9-6.7-21.6-10.5-30.7-18.4-7.4-6.5-16.3-11.5-21.9-19.8-11.7-17.3-15.3-35.3-5.7-55.1,5.4-11.3,15-18,23.5-26.1,6.8-6.5,15.9-9.5,23.7-14.7,2.6-1.7,5.4-3.3,7.7-5.1,5.1-4.1,9.3-2,13.2.8,7.6,5.3,16.1,9.1,23.6,14.5,10.8,7.8,21.9,15.7,28.5,28.4,4.2,8.2,7.3,16.4,7.3,25.4,0,9.4-3.7,17.6-7.9,25.8-5.6,11-15.7,16.9-24.4,24.7-9.4,8.5-21.7,11.9-31.4,19.6Z"/>
  <path class="cls-1" d="M751.9,508.4c0,9.2-4.2,13.6-12.9,13.6-18.5,0-36.9,0-55.4,0-10.8,0-15.9-9-10.9-18.5,1.4-2.5,3-3.6,5.8-3.6,21.6,0,43.3.1,64.9,0,5.7,0,6.9,4.1,8.4,8.5Z"/>
  <path class="cls-1" d="M706,472c-8.3,0-16.1,0-24,0-6.8,0-11-4.4-11-11.3,0-6.9,3.6-10.6,10.7-10.7,19.8,0,39.6,0,59.4,0,7,0,10.9,3.9,10.8,10.6,0,6.7-4.5,11.3-11,11.3-11.5,0-23,0-35,0Z"/>
  <path class="cls-1" d="M339.7,512.3c-1.1-8.1,2.5-12.3,9.9-12.3,19.8,0,39.6,0,59.4,0,4.1,0,7.8.2,9.1,4.7,1.3,4.5,1.9,9-1.4,13-2.4,2.9-5.3,4.4-9.4,4.4-18.8-.2-37.6,0-56.4-.2-7,0-9.5-1.4-11.3-9.6Z"/>
  <path class="cls-1" d="M359,472c-2.8,0-5.2,0-7.5,0-10,0-15-7.6-11-17,1.5-3.5,4.8-4.9,8.3-4.9,20.5-.1,40.9-.4,61.4.1,6.4.2,9.4,3.7,8.8,12.3-.3,5.2-4.4,9.5-9.6,9.5-16.6,0-33.3,0-50.4,0Z"/>
</svg>