<svg xmlns="http://www.w3.org/2000/svg" version="1.1" xmlns:xlink="http://www.w3.org/1999/xlink" width="512" height="512" x="0" y="0" viewBox="0 0 512 512" style="enable-background:new 0 0 512 512" xml:space="preserve" class=""><g><path d="M76 376c-24.813 0-45 20.187-45 45s20.187 45 45 45 45-20.187 45-45-20.187-45-45-45zm0 60c-8.271 0-15-6.729-15-15s6.729-15 15-15 15 6.729 15 15-6.729 15-15 15zM256 376c-24.813 0-45 20.187-45 45s20.187 45 45 45 45-20.187 45-45-20.187-45-45-45zm0 60c-8.271 0-15-6.729-15-15s6.729-15 15-15 15 6.729 15 15-6.729 15-15 15zM436 376c-24.813 0-45 20.187-45 45s20.187 45 45 45 45-20.187 45-45-20.187-45-45-45zm0 60c-8.271 0-15-6.729-15-15s6.729-15 15-15 15 6.729 15 15-6.729 15-15 15z" fill="#ffffff" opacity="1" data-original="#000000" class=""></path><circle cx="166" cy="481" r="15" fill="#ffffff" opacity="1" data-original="#000000" class=""></circle><circle cx="166" cy="361" r="15" fill="#ffffff" opacity="1" data-original="#000000" class=""></circle><circle cx="346" cy="481" r="15" fill="#ffffff" opacity="1" data-original="#000000" class=""></circle><circle cx="346" cy="361" r="15" fill="#ffffff" opacity="1" data-original="#000000" class=""></circle><path d="M65.392 161.605c5.748 5.75 15.289 5.93 21.217 0l44.998-44.998c5.858-5.858 5.858-15.355 0-21.213-5.857-5.858-15.355-5.858-21.213 0L91 114.787V31c0-8.284-6.716-15-15-15s-15 6.716-15 15v83.787L41.606 95.393c-5.857-5.858-15.355-5.858-21.213 0s-5.858 15.355 0 21.213zM245.392 161.605c5.755 5.757 15.262 5.957 21.217 0l44.998-44.998c5.858-5.858 5.858-15.355 0-21.213-5.857-5.858-15.355-5.858-21.213 0L271 114.787V31c0-8.284-6.716-15-15-15s-15 6.716-15 15v83.787l-19.394-19.393c-5.857-5.858-15.355-5.858-21.213 0s-5.858 15.355 0 21.213zM425.392 161.605c5.751 5.753 15.29 5.929 21.217 0l44.998-44.998c5.858-5.858 5.858-15.355 0-21.213-5.857-5.858-15.355-5.858-21.213 0L451 114.787V31c0-8.284-6.716-15-15-15s-15 6.716-15 15v83.787l-19.394-19.393c-5.857-5.858-15.355-5.858-21.213 0s-5.858 15.355 0 21.213zM497 196H15c-8.284 0-15 6.716-15 15v90c0 8.284 6.716 15 15 15h482c8.284 0 15-6.716 15-15v-90c0-8.284-6.716-15-15-15zm-15 90h-91v-15c0-8.284-6.716-15-15-15s-15 6.716-15 15v15h-90v-15c0-8.284-6.716-15-15-15s-15 6.716-15 15v15h-90v-15c0-8.284-6.716-15-15-15s-15 6.716-15 15v15H30v-60h31v15c0 8.284 6.716 15 15 15s15-6.716 15-15v-15h90v15c0 8.284 6.716 15 15 15s15-6.716 15-15v-15h90v15c0 8.284 6.716 15 15 15s15-6.716 15-15v-15h90v15c0 8.284 6.716 15 15 15s15-6.716 15-15v-15h31z" fill="#ffffff" opacity="1" data-original="#000000" class=""></path></g></svg>