<svg xmlns="http://www.w3.org/2000/svg" version="1.1" xmlns:xlink="http://www.w3.org/1999/xlink" width="512" height="512" x="0" y="0" viewBox="0 0 64 64" style="enable-background:new 0 0 512 512" xml:space="preserve" class=""><g><path d="M21.17 21.17C20.41 21.92 20 22.93 20 24s.42 2.07 1.17 2.83S22.93 28 24 28s2.07-.42 2.83-1.17S28 25.07 28 24s-.42-2.07-1.17-2.83c-1.51-1.51-4.15-1.51-5.66 0zm4.24 4.24c-.76.76-2.07.76-2.83 0a1.983 1.983 0 0 1 0-2.82c.38-.37.88-.59 1.41-.59s1.04.21 1.41.59.59.88.59 1.41-.21 1.04-.59 1.41zm35.04 25.46c-.49-.25-1.09-.06-1.35.43-1.07 2.08-3.55 2.07-4.4 2l-.03-.03c.86-.49 1.84-1.22 2.31-2.18.62-1.28 1.82-1.53 1.86-1.54.54-.09.91-.61.82-1.15s-.61-.91-1.15-.82c-.09.02-2.24.41-3.32 2.63-.3.61-1.19 1.19-1.98 1.58l-1.59-1.59c.53-1.11.34-2.49-.58-3.41l-2.83-2.83c-.57-.57-1.36-.85-2.15-.85v-.05c0-.8-.31-1.55-.88-2.12l-2.83-2.83a2.98 2.98 0 0 0-1.96-.86c-.04-.75-.33-1.45-.86-1.98l-2.83-2.83c-.85-.85-2.17-1.06-3.25-.64-.54-1-1.35-3.03-.71-5.45.8-3.04 3.26-4.42 3.88-4.72l3.47-.93c.56.13 1.11.31 1.63.57.62.31 1.19.7 1.7 1.17a.996.996 0 0 0 1.41-.07c.37-.41.34-1.04-.06-1.41a9.625 9.625 0 0 0-2.82-1.78c.2-.25.38-.51.56-.78.43-.69.77-1.44 1-2.22.15-.53-.15-1.08-.68-1.24s-1.08.15-1.24.68c-.18.6-.43 1.18-.77 1.71a6.74 6.74 0 0 1-1.23 1.43l-3.49.93c-.55.05-3.45.19-5.73-2.09s-2.14-5.18-2.09-5.73l.93-3.48c.4-.42.83-.8 1.31-1.12.58-.38 1.2-.68 1.86-.89.53-.17.82-.73.65-1.26s-.73-.82-1.26-.65c-.84.26-1.63.65-2.36 1.13-.2.13-.4.27-.59.42A8.669 8.669 0 0 0 27 3.18a.996.996 0 1 0-1.44 1.38c.43.45.8.96 1.1 1.52s.5 1.16.63 1.78l-.93 3.48c-.31.62-1.69 3.08-4.72 3.88-3 .79-5.4-.64-5.97-1.02l-2.54-2.54c-.17-.55-.28-1.12-.32-1.69-.04-.69.01-1.38.16-2.05.12-.54-.22-1.07-.76-1.19s-1.07.22-1.19.76c-.19.85-.26 1.73-.2 2.61.01.24.04.48.07.72a8.553 8.553 0 0 0-3.37.16c-.54.13-.86.67-.73 1.21s.67.87 1.21.73c.61-.15 1.24-.21 1.87-.19s1.25.15 1.85.35l2.54 2.54c.38.57 1.81 2.98 1.02 5.97-.8 3.04-3.26 4.42-3.88 4.72l-3.47.93c-.56-.13-1.11-.31-1.63-.57-.62-.31-1.19-.7-1.7-1.17-.41-.37-1.04-.34-1.41.06-.37.41-.34 1.04.06 1.41a9.625 9.625 0 0 0 2.82 1.78c-.2.25-.38.51-.56.78-.43.69-.77 1.44-1 2.22a1.006 1.006 0 0 0 .96 1.28c.43 0 .83-.28.96-.72.18-.6.43-1.18.77-1.71.34-.54.76-1.01 1.23-1.43l3.49-.93c.54-.05 3.46-.19 5.73 2.09 2.27 2.27 2.14 5.18 2.09 5.73l-.93 3.48c-.4.42-.83.8-1.31 1.12-.58.38-1.2.68-1.86.89-.53.17-.82.73-.65 1.26s.73.82 1.26.65c.84-.26 1.63-.65 2.36-1.13.2-.13.4-.27.59-.42a8.669 8.669 0 0 0 1.82 2.84c.2.2.46.31.72.31s.5-.09.69-.28c.4-.38.41-1.02.03-1.41-.43-.45-.8-.96-1.1-1.52s-.5-1.16-.63-1.78l.93-3.48c.31-.62 1.69-3.08 4.72-3.88 2.41-.63 4.43.16 5.43.7-.15.36-.22.74-.22 1.14 0 .8.31 1.55.88 2.12l2.83 2.83c.53.53 1.22.82 1.96.86a3 3 0 0 0 .86 1.98l2.83 2.83c.57.57 1.32.88 2.12.88h.03c0 .78.28 1.55.88 2.15l2.83 2.83a3 3 0 0 0 2.12.88c.44 0 .88-.11 1.28-.3l1.56 1.56c0 .06 0 .11.02.17-.03.94-.22 2.22-.74 2.79-1.65 1.84-1.21 3.97-1.19 4.06.1.47.51.78.97.78.07 0 .14 0 .21-.02.54-.11.88-.64.78-1.18 0-.05-.23-1.25.72-2.31.58-.64.89-1.53 1.06-2.37.4.71 1.29 2.65.63 4.55-.18.52.09 1.09.62 1.27.11.04.22.06.33.06.41 0 .8-.26.94-.67.67-1.92.26-3.77-.23-5.03 1.58-.12 3.81-.74 5.01-3.08.25-.49.06-1.09-.43-1.35zM25.87 30.81c-1.96.52-3.39 1.59-4.36 2.61-.31-1.38-1-3.02-2.45-4.48a9.065 9.065 0 0 0-4.48-2.45c1.03-.97 2.1-2.4 2.61-4.36.52-1.96.3-3.7-.1-5.05 1.35.41 3.09.62 5.05.1s3.39-1.59 4.36-2.61c.31 1.38 1 3.02 2.45 4.48a9.065 9.065 0 0 0 4.48 2.45c-1.03.97-2.1 2.4-2.61 4.36-.52 1.96-.3 3.7.1 5.05a9.138 9.138 0 0 0-5.05-.1zm8.01 4.48c-.19-.19-.29-.44-.29-.71a.99.99 0 0 1 1-1c.27 0 .52.1.71.29l2.83 2.83c.19.19.29.44.29.71s-.1.52-.29.71c-.38.38-1.03.38-1.41 0l-2.83-2.83zm8.48 8.5-2.83-2.83a.996.996 0 0 1 .71-1.7c.26 0 .51.1.71.29l2.83 2.83c.19.19.29.44.29.71s-.1.52-.29.71c-.38.38-1.04.38-1.41 0zm5.85 5.85-2.83-2.83c-.19-.19-.29-.44-.29-.71s.1-.52.29-.71c.38-.38 1.03-.38 1.41 0l2.83 2.83a.996.996 0 1 1-1.41 1.41z" fill="#ffffff" opacity="1" data-original="#000000"></path></g></svg>