<?xml version="1.0" standalone="no"?>
<!DOCTYPE svg PUBLIC "-//W3C//DTD SVG 1.1//EN" "http://www.w3.org/Graphics/SVG/1.1/DTD/svg11.dtd">
<svg xmlns="http://www.w3.org/2000/svg" xmlns:xlink="http://www.w3.org/1999/xlink" version="1.1" width="64" height="64" x="0" y="0" viewBox="0 0 64 64" style="enable-background:new 0 0 512 512" xml:space="preserve" class=""><g transform="matrix(1,0,0,1,0,0)"><path d="M21 38h5v5a1 1 0 0 0 1 1h10a1 1 0 0 0 1-1v-5h5a1 1 0 0 0 1-1V27a1 1 0 0 0-1-1h-5v-5a1 1 0 0 0-1-1H27a1 1 0 0 0-1 1v5h-5a1 1 0 0 0-1 1v10a1 1 0 0 0 1 1zm1-10h5a1 1 0 0 0 1-1v-5h8v5a1 1 0 0 0 1 1h5v8h-5a1 1 0 0 0-1 1v5h-8v-5a1 1 0 0 0-1-1h-5z" fill="#ffffff" opacity="1" data-original="#000000" class=""/><path d="M13 32c0 10.477 8.523 19 19 19s19-8.523 19-19-8.523-19-19-19-19 8.523-19 19zm19-17c9.374 0 17 7.626 17 17s-7.626 17-17 17-17-7.626-17-17 7.626-17 17-17zM35.114 5.178l-.229 1.986a25.02 25.02 0 0 1 15.154 7.528l1.443-1.385a27.014 27.014 0 0 0-16.368-8.129zM32.962 7.018l.076-1.998a26.614 26.614 0 0 0-2.076 0l.076 1.998a25.716 25.716 0 0 1 1.924 0z" fill="#ffffff" opacity="1" data-original="#000000" class=""/><path d="M7 32C7 19.29 16.507 8.612 29.114 7.164l-.229-1.986C15.269 6.742 5 18.273 5 32s10.269 25.258 23.886 26.822l.229-1.986C16.507 55.388 7 44.71 7 32zM31.038 56.982l-.076 1.998a25.53 25.53 0 0 0 2.076 0l-.076-1.998c-.638.024-1.286.024-1.924 0zM58.857 26.485c-.361-.602-1.354-.602-1.715 0l-3 5A1.001 1.001 0 0 0 55 33h1.953c-.486 12.263-9.794 22.426-22.068 23.836l.229 1.986C48.399 57.296 58.492 46.282 58.977 33H61a.998.998 0 0 0 .857-1.515zM56.766 31 58 28.943 59.234 31zM11.266 56.036c-2.322-.642-2.661-.98-3.302-3.303a1.001 1.001 0 0 0-1.928 0c-.641 2.322-.98 2.661-3.302 3.303a1 1 0 0 0 0 1.928c2.322.642 2.661.98 3.302 3.303a1.001 1.001 0 0 0 1.928 0c.641-2.322.98-2.661 3.302-3.303a1 1 0 0 0 0-1.928zM7 58.298A3.938 3.938 0 0 0 5.702 57 3.938 3.938 0 0 0 7 55.702c.34.545.753.957 1.298 1.298A3.938 3.938 0 0 0 7 58.298zM61.266 6.036c-2.322-.642-2.661-.98-3.302-3.303a1.001 1.001 0 0 0-1.928 0c-.641 2.322-.98 2.661-3.302 3.303a1 1 0 0 0 0 1.928c2.322.642 2.661.98 3.302 3.303a1.001 1.001 0 0 0 1.928 0c.641-2.322.98-2.661 3.302-3.303a1 1 0 0 0 0-1.928zM57 8.298A3.938 3.938 0 0 0 55.702 7 3.938 3.938 0 0 0 57 5.702c.34.545.753.957 1.298 1.298A3.938 3.938 0 0 0 57 8.298z" fill="#ffffff" opacity="1" data-original="#000000" class=""/></g></svg>