<svg xmlns="http://www.w3.org/2000/svg" version="1.1" xmlns:xlink="http://www.w3.org/1999/xlink" width="512" height="512" x="0" y="0" viewBox="0 0 468 468" style="enable-background:new 0 0 512 512" xml:space="preserve" class=""><g><path d="M160.188 438a5 5 0 0 1-5-5v-38.753c0-2.762 2.238-5 5-5s5 2.238 5 5V433a5 5 0 0 1-5 5zM307.813 438a5 5 0 0 1-5-5v-38.753c0-2.762 2.238-5 5-5s5 2.238 5 5V433a5 5 0 0 1-5 5zM270.551 208.243a4.975 4.975 0 0 1-2.675-.78l-18.278-11.604c-3.043-1.931-3.043-6.511 0-8.441l18.278-11.605a4.997 4.997 0 0 1 6.9 1.541 4.998 4.998 0 0 1-1.541 6.9l-11.63 7.385 11.63 7.384c4.066 2.579 2.116 9.22-2.684 9.22zM197.449 208.243c-4.794 0-6.761-6.635-2.685-9.222l11.63-7.384-11.63-7.385a4.998 4.998 0 0 1-1.541-6.9 4.997 4.997 0 0 1 6.9-1.541l18.278 11.605c3.043 1.931 3.043 6.511 0 8.441l-18.278 11.604c-.83.53-1.758.782-2.674.782zM433 468H35c-2.762 0-5-2.238-5-5s2.238-5 5-5h398c2.762 0 5 2.238 5 5s-2.238 5-5 5zM445 289h-7.03c-2.762 0-5-2.238-5-5s2.238-5 5-5H445c2.762 0 5 2.238 5 5s-2.238 5-5 5zM412.03 289H405c-2.762 0-5-2.238-5-5s2.238-5 5-5h7.03c2.762 0 5 2.238 5 5s-2.238 5-5 5zM425 309a5 5 0 0 1-5-5v-7.03c0-2.762 2.238-5 5-5s5 2.238 5 5V304a5 5 0 0 1-5 5zM425 276.03a5 5 0 0 1-5-5V264c0-2.762 2.238-5 5-5s5 2.238 5 5v7.03a5 5 0 0 1-5 5zM63 289h-7.03c-2.762 0-5-2.238-5-5s2.238-5 5-5H63c2.762 0 5 2.238 5 5s-2.238 5-5 5zM30.03 289H23c-2.762 0-5-2.238-5-5s2.238-5 5-5h7.03c2.762 0 5 2.238 5 5s-2.238 5-5 5zM43 309a5 5 0 0 1-5-5v-7.03c0-2.762 2.238-5 5-5s5 2.238 5 5V304a5 5 0 0 1-5 5zM43 276.03a5 5 0 0 1-5-5V264c0-2.762 2.238-5 5-5s5 2.238 5 5v7.03a5 5 0 0 1-5 5z" fill="#ffffff" opacity="1" data-original="#000000"></path><ellipse cx="354.272" cy="428.623" rx="6.627" ry="6.703" fill="#ffffff" opacity="1" data-original="#000000"></ellipse><path d="M118.359 436.712V336.68c0-30.376 24.624-55 55-55h23.654v12.742c0 18.698 13.949 34.189 31.986 36.639v101.651a5 5 0 0 0 10 0V331.061c18.037-2.45 31.986-17.941 31.986-36.639V281.68h23.286c30.004 0 55.07 25.123 55 55.13l-.215 61.885a5 5 0 1 0 10 .034l.216-61.896c.084-35.474-29.523-65.153-65-65.153h-23.286v-13.213l16.782-10.162c10.125-6.132 16.415-17.318 16.415-29.193v-12.467c27.698-24.876 36.844-65.098 19.066-98.509-6.408-12.044-19.236-19.037-32.419-18.563 1.591-13.732-8.93-21.367-20.392-25.399 5.42-12.343-4.128-26.536-17.443-26.536h-6.125l16.637-30.227c1.835-3.332-.576-7.411-4.38-7.411h-30.269a5.004 5.004 0 0 0-4.3 2.447l-25.895 43.622c-3.326 5.603-3.574 12.263-.731 18.042-36.579 12.781-62.55 44.352-62.55 81.239 0 23.861 10.864 45.513 28.434 61.293v12.468c0 11.875 6.29 23.062 16.415 29.193l16.782 10.162v13.213h-23.654c-35.899 0-65 29.102-65 65v100.032a5 5 0 0 0 10 .001zm142.627-142.29c0 14.88-12.106 26.986-26.986 26.986s-26.986-12.106-26.986-26.986v-29.9l8.857 5.364c11.059 6.694 25.199 6.695 36.258 0l8.857-5.364zM207.264 51.175 231.705 10h18.963l-16.637 30.227c-1.803 3.276.64 7.411 4.38 7.411h14.585c6.928 0 11.35 8.02 7.56 13.885l-25.597 39.607 5.601-30.457c.567-3.096-1.985-5.904-4.918-5.904h-20.64c-6.782 0-11.226-7.72-7.738-13.594zm-34.127 69.22c-2.511-4.313-9.32-2.473-9.32 2.517v69.58c-11.543-13.061-18.434-29.407-18.434-47.14 0-33.903 25.127-62.76 59.974-73.177 2.854 1.678 6.154 2.595 9.646 2.595h14.637l-9.07 49.327c-.958 5.221 6.273 8.022 9.117 3.618l35.41-54.794c8.551 2.804 20.97 9.107 14.155 20.284-2.335 3.83 1.396 8.68 5.697 7.395 11.485-3.422 23.882 1.724 29.474 12.234 13.903 26.125 9.169 57.728-10.238 79.678v-69.6c0-3.052-3.039-5.66-6.241-4.844l-80.857 20.717c-17.031 4.366-35.104-3.199-43.95-18.39zm12.274 119.355c-7.151-4.331-11.595-12.239-11.595-20.639v-82.138c12.107 11.057 29.315 15.708 45.751 11.498l74.616-19.118v89.758c0 8.399-4.443 16.308-11.595 20.639l-35.64 21.581a24.924 24.924 0 0 1-25.898 0zM352.834 98.898c-4.357 0-6.507-5.246-3.713-8.347l16.7-18.536-20.161-5.401c-3.731-1.001-4.94-5.867-2.106-8.495l26.407-24.502a4.997 4.997 0 0 1 7.065.265 4.997 4.997 0 0 1-.265 7.065l-19.774 18.349 19.307 5.173c3.545.952 4.879 5.448 2.421 8.177l-22.164 24.6a4.992 4.992 0 0 1-3.717 1.652zM392.834 188.898c-4.357 0-6.507-5.246-3.713-8.347l16.7-18.536-20.161-5.401c-3.731-1.001-4.94-5.867-2.106-8.495l26.407-24.502a4.995 4.995 0 0 1 7.065.265 4.997 4.997 0 0 1-.265 7.065l-19.774 18.349 19.307 5.173c3.545.952 4.879 5.448 2.421 8.177l-22.164 24.6a4.992 4.992 0 0 1-3.717 1.652zM114.156 99.171c-3.115 0-5.552-2.957-4.896-6.042l5.195-24.402-20.162 5.402c-3.731.991-7.214-2.607-6.071-6.304l10.619-34.423a4.996 4.996 0 0 1 6.251-3.304 4.999 4.999 0 0 1 3.304 6.251l-7.952 25.778 19.308-5.174c3.546-.948 6.949 2.279 6.185 5.871l-6.895 32.386a5.003 5.003 0 0 1-4.886 3.961zM74.156 189.171c-3.115 0-5.552-2.957-4.896-6.042l5.195-24.402-20.162 5.402c-3.731.995-7.213-2.609-6.071-6.304l10.619-34.423a4.994 4.994 0 0 1 6.251-3.304 4.999 4.999 0 0 1 3.304 6.251l-7.952 25.778 19.308-5.174c3.546-.951 6.949 2.28 6.185 5.871l-6.895 32.386a5.003 5.003 0 0 1-4.886 3.961z" fill="#ffffff" opacity="1" data-original="#000000"></path></g></svg>