<?xml version="1.0" standalone="no"?>
<!DOCTYPE svg PUBLIC "-//W3C//DTD SVG 1.1//EN" "http://www.w3.org/Graphics/SVG/1.1/DTD/svg11.dtd">
<svg xmlns="http://www.w3.org/2000/svg" xmlns:xlink="http://www.w3.org/1999/xlink" version="1.1" width="66" height="66" x="0" y="0" viewBox="0 0 66 66" style="enable-background:new 0 0 512 512" xml:space="preserve" class=""><g><path d="m64.7 13.7-8-10.4c-.4-.5-1.2-.5-1.6 0l-8 10.4c-.2.3-.3.7-.1 1.1.2.3.5.6.9.6h3.4V28c0 .6.4 1 1 1h7.3c.6 0 1-.4 1-1V15.3H64c.4 0 .7-.2.9-.6.1-.3.1-.7-.2-1zm-5.1-.4c-.6 0-1 .4-1 1V27h-5.3V14.3c0-.6-.4-1-1-1H50l6-7.7 6 7.7zM14.7 44.7V32h3.4c.4 0 .7-.2.9-.6.2-.3.1-.8-.1-1.1l-8-10.4c-.4-.5-1.2-.5-1.6 0l-8 10.4c-.3.4-.3.8-.1 1.1.1.4.5.6.9.6h3.4v12.7c0 .6.4 1 1 1h7.3c.5 0 .9-.5.9-1zm-2-13.7v12.7H7.4V31c0-.6-.4-1-1-1H4.1l6-7.7 6 7.7h-2.3c-.6 0-1.1.5-1.1 1zM33.8 14.2c3.6 0 6.6-3 6.6-6.6S37.4 1 33.8 1s-6.6 3-6.6 6.6 2.9 6.6 6.6 6.6zm0-11.2c2.5 0 4.6 2.1 4.6 4.6s-2.1 4.6-4.6 4.6-4.6-2.1-4.6-4.6 2-4.6 4.6-4.6z" fill="#ffffff" opacity="1" data-original="#000000"/><path d="M41.9 50V38.6h.5c1.8 0 3.3-1.7 3.3-3.9V23c0-4.4-3-8.1-6.7-8.1H27.5c-3.7 0-6.7 3.6-6.7 8.1v11.7c0 2.1 1.5 3.9 3.3 3.9h.5V50C18 51.3 14 53.9 14 57.1c0 5.1 9.9 7.9 19.2 7.9 11 0 19.2-3.4 19.2-7.9.1-3.2-3.9-5.8-10.5-7.1zM24.1 36.6c-.7 0-1.3-.9-1.3-1.9V23c0-3.3 2.1-6.1 4.7-6.1H39c2.6 0 4.7 2.7 4.7 6.1v11.7c0 1-.6 1.9-1.3 1.9h-.5v-8.9c0-.6-.4-1-1-1s-1 .4-1 1v28.4h-5.6V41.6c0-.6-.4-1-1-1s-1 .4-1 1v14.5h-5.6V27.7c0-.6-.4-1-1-1s-1 .4-1 1v8.9zM33.3 63C23.1 63 16 59.9 16 57.1c0-2 3.5-4 8.6-5.1v5.1c0 .6.4 1 1 1h15.2c.6 0 1-.4 1-1V52c5.1 1.1 8.6 3.1 8.6 5.1.1 2.8-7 5.9-17.1 5.9z" fill="#ffffff" opacity="1" data-original="#000000"/></g></svg>